mtllib material.mtl
usemtl Material_#74
v 0.83585000 -3.39124500 15.04401300
v 0.83585000 -3.39124500 15.04401300
v -0.03530300 -3.39124500 15.06910600
v -0.03530300 -3.39124500 15.06910600
v -0.03530300 -3.39124500 15.06910600
v -1.50556600 -3.39124500 14.99687700
v -1.50556600 -3.39124500 14.99687700
v -1.50556600 -3.39124500 14.99687700
v -2.96166000 -3.39124500 14.78088400
v -7.10626000 -3.39124500 13.29792200
v -13.26411100 -3.39124500 -7.00185800
v -12.50733400 -3.39124500 -8.26446100
v -12.50733400 -3.39124500 -8.26446100
v -12.50733400 -3.39124500 -8.26446100
v -12.50733400 -3.39124500 -8.26446100
v -11.63044900 -3.39124500 -9.44680600
v -11.63044900 -3.39124500 -9.44680600
v -11.63044900 -3.39124500 -9.44680600
v -10.64189400 -3.39124500 -10.53750700
v -9.55119100 -3.39124500 -11.52605900
v -9.55119100 -3.39124500 -11.52605900
v 13.19349600 -3.39124500 -7.00188000
v 13.82287100 -3.39124500 -5.67118500
v 13.82287100 -3.39124500 -5.67118500
v 13.82287100 -3.39124500 -5.67118500
v 13.82287100 -3.39124500 -5.67118500
v 14.31878900 -3.39124500 -4.28520800
v 14.31878900 -3.39124500 -4.28520800
v 14.67646400 -3.39124500 -2.85729700
v 14.67646400 -3.39124500 -2.85729700
v -10.64189400 -2.43952400 -10.53750700
v -10.64189400 -2.43952400 -10.53750700
v -10.64189400 -2.43952400 -10.53750700
v -10.64189400 -2.43952400 -10.53750700
v -11.63044900 -2.43952400 -9.44680600
v -11.63044900 -2.43952400 -9.44680600
v -11.63044900 -2.43952400 -9.44680600
v -12.50733400 -2.43952400 -8.26446100
v -12.50733400 -2.43952400 -8.26446100
v -2.96166000 -2.43952400 14.78088400
v -2.96166000 -2.43952400 14.78088400
v -2.96166000 -2.43952400 14.78088400
v -2.96166000 -2.43952400 14.78088400
v -1.50556600 -2.43952400 14.99687700
v -1.50556600 -2.43952400 14.99687700
v -1.50556600 -2.43952400 14.99687700
v -0.03530300 -2.43952400 15.06910600
v -0.03530300 -2.43952400 15.06910600
v -0.03530300 -2.43952400 15.06910600
v 14.31878900 -2.43952400 -4.28520800
v 14.31878900 -2.43952400 -4.28520800
v 14.31878900 -2.43952400 -4.28520800
v 14.31878900 -2.43952400 -4.28520800
v 13.82287100 -2.43952400 -5.67118500
v -4.02637700 -3.39124500 14.51418700
v -4.02637700 -3.39124500 14.51418700
v -4.02637700 -3.39124500 14.51418700
v -4.02637700 -3.39124500 14.51418700
v -4.02637700 -2.43952400 14.51418700
v -4.02637700 -2.43952400 14.51418700
v -4.94141600 -3.39124500 14.19463100
v -4.94141600 -3.39124500 14.19463100
v -4.94141600 -3.39124500 14.19463100
v -4.93459000 -2.43952400 14.19463100
v -4.93459000 -2.43952400 14.19463100
v -4.93459000 -2.43952400 14.19463100
v -5.88928700 -3.39124500 13.80201300
v -5.88928700 -3.39124500 13.80201300
v -5.88928700 -3.39124500 13.80201300
v -5.87074200 -2.43952400 13.80201300
v -5.87074200 -2.43952400 13.80201300
v -5.87074200 -2.43952400 13.80201300
v -6.36478500 -3.39124500 13.60505300
v -6.36478500 -3.39124500 13.60505300
v -6.36478500 -3.39124500 13.60505300
v -6.34036100 -2.43952400 13.60505300
v -6.34036100 -2.43952400 13.60505300
v -6.34036100 -2.43952400 13.60505300
v -6.84936500 -3.39124500 13.40433100
v -6.84936500 -3.39124500 13.40433100
v -6.84936500 -3.39124500 13.40433100
v -6.81895500 -2.43952400 13.40433100
v -6.81895500 -2.43952400 13.40433100
v -6.81895500 -2.43952400 13.40433100
v 0.83585000 -2.39103700 15.04401300
v -7.07538100 -2.43628500 13.29910100
v -7.07538100 -2.43628500 13.29910100
v -13.23024400 -2.44165100 -7.00164800
v -13.23024400 -2.44165100 -7.00164800
v 14.71006800 -2.44018700 -2.85729700
v 13.19349600 -2.43990800 -7.00187900
v 13.19349600 -2.43990800 -7.00187900
v -9.55119100 -2.43952400 -11.52605900
v -2.96166000 -2.43952400 14.78088400
v -2.96166000 -2.43952400 14.78088400
v -2.96166000 -2.43952400 14.78088400
v -4.64253900 -2.47399200 -3.08977900
v -4.64253900 -2.47399200 -3.08977900
v -4.64253900 -2.47399200 -3.08977900
v -4.64253900 -2.47399200 -3.08977900
v -4.64253900 -2.47399200 -3.08977900
v -11.63044900 -2.43952400 -9.44680600
v -11.63044900 -2.43952400 -9.44680600
v -11.63044900 -2.43952400 -9.44680600
v -12.50733400 -2.43952400 -8.26446100
v -12.50733400 -2.43952400 -8.26446100
v -13.23051700 -2.43956400 -6.98197000
v 13.19349600 -2.43952400 -7.00188000
v 3.60827100 -2.47395200 -7.05403200
v 3.60827100 -2.47395200 -7.05403200
v 3.60827100 -2.47395200 -7.05403200
v 13.82287100 -2.43952400 -5.67118500
v 13.82287100 -2.43952400 -5.67118500
v 13.82287100 -2.43952400 -5.67118500
v 2.46986300 -2.47395200 -6.93944700
v 3.32192400 -2.47395200 -0.76624300
v 4.26821300 -2.47395200 -0.90225300
v 4.26821300 -2.47395200 -0.90225300
v 4.26821300 -2.47395200 -0.90225300
v 4.26821300 -2.47395200 -0.90225300
v 1.22371100 -2.47395200 -7.05687500
v 3.23664000 -2.47395200 -0.46891100
v 0.45222700 -2.47395200 -7.25104600
v 3.17951200 -2.47395200 -0.10942800
v 3.17951200 -2.47395200 -0.10942800
v 3.17951200 -2.47395200 -0.10942800
v 3.17951200 -2.47395200 -0.10942800
v 3.17951200 -2.47395200 -0.10942800
v -1.38870100 -2.47395200 -8.05225400
v -1.38870100 -2.47395200 -8.05225400
v -2.11502900 -2.47395200 -8.54181500
v -2.11502900 -2.47395200 -8.54181500
v -2.11502900 -2.47395200 -8.54181500
v -2.11502900 -2.47395200 -8.54181500
v -4.49395500 -2.47395200 -2.97747500
v -4.49395500 -2.47395200 -2.97747500
v -0.51182600 -2.47395200 -7.57478600
v -4.34332000 -2.47395200 -2.80998200
v -4.38645500 -2.47395200 -2.59036600
v -4.38645500 -2.47395200 -2.59036600
v -4.38645500 -2.47395200 -2.59036600
v -4.38645500 -2.47395200 -2.59036600
v -10.64189400 -2.43952400 -10.53750700
v -10.64189400 -2.43952400 -10.53750700
v 14.71006800 -2.43952400 -2.85729700
v -1.50556600 -2.43952400 14.99687700
v -1.50556600 -2.43952400 14.99687700
v -7.13875000 -2.43952400 13.25056100
v -0.03530300 -2.43952400 15.06910600
v -0.03530300 -2.43952400 15.06910600
v 0.83585000 -2.43952400 15.04401300
v 14.31878900 -2.43952400 -4.28520800
v 14.31878900 -2.43952400 -4.28520800
v -5.77555700 -2.43952400 13.92729700
v -5.77555700 -2.43952400 13.92729700
v -4.38958000 -2.43952400 14.42321000
v -4.38958000 -2.43952400 14.42321000
v -9.55119100 -2.43952400 -11.52605900
vn 0.07450000 -0.01540000 0.99710000
vn 0.07230000 0.02080000 0.99720000
vn -0.01840000 0.02400000 0.99950000
vn -0.01090000 -0.00740000 0.99990000
vn -0.01010000 -0.00000000 0.99990000
vn -0.09890000 -0.00930000 0.99510000
vn -0.10830000 0.03030000 0.99370000
vn -0.09800000 -0.00000000 0.99520000
vn -0.19510000 -0.00000000 0.98080000
vn -0.45250000 0.01410000 0.89170000
vn -0.87900000 0.03930000 -0.47520000
vn -0.83040000 0.05650000 -0.55430000
vn -0.83450000 -0.00180000 -0.55100000
vn -0.82380000 0.04050000 -0.56540000
vn -0.84090000 -0.01890000 -0.54090000
vn -0.77300000 -0.00000000 -0.63440000
vn -0.76600000 0.03030000 -0.64210000
vn -0.77240000 -0.00930000 -0.63510000
vn -0.70710000 -0.00000000 -0.70710000
vn -0.64280000 0.03070000 -0.76540000
vn -0.63520000 -0.00840000 -0.77230000
vn 0.88190000 -0.00000000 -0.47140000
vn 0.91940000 0.03030000 -0.39210000
vn 0.92420000 -0.00930000 -0.38180000
vn 0.92740000 0.03030000 -0.37290000
vn 0.92350000 -0.00930000 -0.38350000
vn 0.95530000 -0.00850000 -0.29560000
vn 0.95860000 0.00840000 -0.28460000
vn 0.97510000 -0.05520000 -0.21460000
vn 0.98060000 0.02400000 -0.19450000
vn -0.69940000 -0.03030000 -0.71410000
vn -0.70770000 0.00930000 -0.70640000
vn -0.71410000 -0.03030000 -0.69940000
vn -0.70640000 0.00930000 -0.70770000
vn -0.77920000 -0.03030000 -0.62600000
vn -0.77350000 0.00930000 -0.63370000
vn -0.77300000 -0.00000000 -0.63440000
vn -0.84000000 -0.00760000 -0.54260000
vn -0.83420000 0.00770000 -0.55150000
vn -0.19640000 0.01160000 0.98050000
vn -0.18480000 -0.03030000 0.98230000
vn -0.19420000 0.00930000 0.98090000
vn -0.20260000 -0.02650000 0.97890000
vn -0.08760000 -0.03030000 0.99570000
vn -0.09800000 -0.00000000 0.99520000
vn -0.09710000 0.00930000 0.99520000
vn -0.00490000 -0.01800000 0.99980000
vn -0.00950000 -0.00000000 1.00000000
vn -0.00780000 0.01120000 0.99990000
vn 0.95910000 0.01770000 -0.28260000
vn 0.94990000 -0.03470000 -0.31060000
vn 0.95560000 -0.00120000 -0.29480000
vn 0.95160000 -0.05270000 -0.30290000
vn 0.92390000 -0.00000000 -0.38270000
vn -0.28610000 -0.01010000 0.95820000
vn -0.27970000 0.02530000 0.95970000
vn -0.29160000 0.02480000 0.95620000
vn -0.28990000 -0.01240000 0.95700000
vn -0.28830000 -0.00060000 0.95750000
vn -0.28720000 0.00060000 0.95790000
vn -0.36140000 -0.00660000 0.93240000
vn -0.35690000 0.00430000 0.93410000
vn -0.35870000 0.02050000 0.93320000
vn -0.35620000 -0.01260000 0.93430000
vn -0.35520000 0.01190000 0.93470000
vn -0.35990000 0.00080000 0.93300000
vn -0.38270000 0.00920000 0.92380000
vn -0.38240000 0.00810000 0.92400000
vn -0.38780000 0.00620000 0.92170000
vn -0.38190000 0.00890000 0.92420000
vn -0.38720000 0.00440000 0.92200000
vn -0.38680000 0.00580000 0.92220000
vn -0.38270000 0.01110000 0.92380000
vn -0.38250000 0.01110000 0.92390000
vn -0.38750000 0.00910000 0.92180000
vn -0.38190000 0.01070000 0.92410000
vn -0.38670000 0.00870000 0.92210000
vn -0.38690000 0.00870000 0.92210000
vn -0.38080000 0.01250000 0.92460000
vn -0.38440000 0.01090000 0.92310000
vn -0.38020000 0.01380000 0.92480000
vn -0.38500000 0.01020000 0.92290000
vn -0.38160000 0.01070000 0.92430000
vn -0.38130000 0.01180000 0.92440000
vn 0.09320000 -0.00250000 0.99560000
vn -0.46900000 -0.00250000 0.88320000
vn -0.46230000 0.05750000 0.88490000
vn -0.88350000 0.05470000 -0.46520000
vn -0.89330000 -0.02560000 -0.44870000
vn 0.97980000 -0.04800000 -0.19430000
vn 0.87460000 0.01240000 -0.48470000
vn 0.88010000 -0.04030000 -0.47320000
vn -0.62160000 0.00080000 -0.78330000
vn 0.00030000 1.00000000 -0.00220000
vn 0.00070000 1.00000000 -0.00200000
vn 0.00050000 1.00000000 -0.00200000
vn 0.00290000 1.00000000 0.00220000
vn 0.00350000 1.00000000 0.00160000
vn -0.00020000 1.00000000 -0.00010000
vn -0.00000000 1.00000000 -0.00000000
vn 0.00320000 1.00000000 0.00180000
vn 0.00290000 1.00000000 0.00220000
vn 0.00330000 1.00000000 0.00300000
vn 0.00350000 1.00000000 0.00160000
vn 0.00320000 1.00000000 0.00180000
vn 0.00290000 1.00000000 0.00220000
vn 0.00320000 1.00000000 0.00180000
vn -0.00360000 1.00000000 0.00170000
vn -0.00000000 1.00000000 -0.00000000
vn -0.00360000 1.00000000 0.00170000
vn -0.00340000 1.00000000 0.00040000
vn -0.00360000 1.00000000 0.00170000
vn -0.00310000 1.00000000 0.00110000
vn -0.00340000 1.00000000 0.00040000
vn -0.00000000 1.00000000 -0.00000000
vn -0.00000000 1.00000000 -0.00000000
vn -0.00340000 1.00000000 0.00040000
vn -0.00310000 1.00000000 0.00090000
vn -0.00310000 1.00000000 0.00110000
vn -0.00000000 1.00000000 -0.00000000
vn -0.00000000 1.00000000 -0.00000000
vn -0.00000000 1.00000000 -0.00000000
vn -0.00000000 1.00000000 -0.00000000
vn 0.00070000 1.00000000 -0.00200000
vn -0.00010000 1.00000000 -0.00230000
vn 0.00010000 1.00000000 -0.00220000
vn 0.00030000 1.00000000 -0.00220000
vn -0.00000000 1.00000000 -0.00000000
vn -0.00000000 1.00000000 -0.00000000
vn -0.00020000 1.00000000 -0.00010000
vn -0.00000000 1.00000000 -0.00000000
vn 0.00320000 1.00000000 0.00350000
vn 0.00330000 1.00000000 0.00300000
vn 0.00350000 1.00000000 0.00160000
vn -0.00000000 1.00000000 -0.00000000
vn -0.00020000 1.00000000 -0.00010000
vn -0.00000000 1.00000000 -0.00000000
vn -0.00000000 1.00000000 -0.00000000
vn -0.00000000 1.00000000 -0.00000000
vn 0.00050000 1.00000000 -0.00200000
vn 0.00100000 1.00000000 -0.00200000
vn 0.00070000 1.00000000 -0.00200000
vn 0.00330000 1.00000000 0.00300000
vn 0.00320000 1.00000000 0.00350000
vn -0.00310000 1.00000000 0.00090000
vn 0.00010000 1.00000000 -0.00220000
vn 0.00030000 1.00000000 -0.00220000
vn 0.00100000 1.00000000 -0.00200000
vn -0.00010000 1.00000000 -0.00230000
vn 0.00010000 1.00000000 -0.00220000
vn -0.00010000 1.00000000 -0.00230000
vn -0.00310000 1.00000000 0.00090000
vn -0.00310000 1.00000000 0.00110000
vn 0.00100000 1.00000000 -0.00200000
vn 0.00070000 1.00000000 -0.00200000
vn 0.00050000 1.00000000 -0.00200000
vn 0.00070000 1.00000000 -0.00200000
vn 0.00320000 1.00000000 0.00350000
vt 3.42428900 0.06266200
vt 3.42428900 0.06266200
vt 3.24874800 0.06266200
vt 3.24874800 0.06266200
vt 3.24874800 0.06266200
vt 2.95248200 0.06266200
vt 2.95248200 0.06266200
vt 2.95248200 0.06266200
vt 2.65907200 0.06266200
vt 1.82391400 0.06266200
vt 5.24029900 0.06948200
vt 4.98587800 0.06948200
vt 4.98587800 0.06948200
vt 4.98587800 0.06948200
vt 4.98587800 0.06948200
vt 4.74762800 0.06948200
vt 4.74762800 0.06948200
vt 4.74762800 0.06948200
vt 4.52784600 0.06948200
vt 4.30806400 0.06948200
vt 4.30806400 0.06948200
vt 4.27007800 0.06266200
vt 4.00193600 0.06266200
vt 4.00193600 0.06266200
vt 4.00193600 0.06266200
vt 4.00193600 0.06266200
vt 3.72265400 0.06266200
vt 3.72265400 0.06266200
vt 3.43492300 0.06266200
vt 3.43492300 0.06266200
vt 4.52784600 0.26125900
vt 4.52784600 0.26125900
vt 4.52784600 0.26125900
vt 4.52784600 0.26125900
vt 4.74762800 0.26125900
vt 4.74762800 0.26125900
vt 4.74762800 0.26125900
vt 4.98587800 0.26125900
vt 4.98587800 0.26125900
vt 2.65907200 0.25443900
vt 2.65907200 0.25443900
vt 2.65907200 0.25443900
vt 2.65907200 0.25443900
vt 2.95248200 0.25443900
vt 2.95248200 0.25443900
vt 2.95248200 0.25443900
vt 3.24874800 0.25443900
vt 3.24874800 0.25443900
vt 3.24874800 0.25443900
vt 3.72265400 0.25443900
vt 3.72265400 0.25443900
vt 3.72265400 0.25443900
vt 3.72265400 0.25443900
vt 4.00193600 0.25443900
vt 2.44452600 0.06266200
vt 2.44452600 0.06266200
vt 2.44452600 0.06266200
vt 2.44452600 0.06266200
vt 2.44452600 0.25443900
vt 2.44452600 0.25443900
vt 2.26014100 0.06266200
vt 2.26014100 0.06266200
vt 2.26014100 0.06266200
vt 2.26151600 0.25443900
vt 2.26151600 0.25443900
vt 2.26151600 0.25443900
vt 2.06914000 0.06266200
vt 2.06914000 0.06266200
vt 2.06914000 0.06266200
vt 2.07287700 0.25443900
vt 2.07287700 0.25443900
vt 2.07287700 0.25443900
vt 1.97332500 0.06266200
vt 1.97332500 0.06266200
vt 1.97332500 0.06266200
vt 1.97824600 0.25443900
vt 1.97824600 0.25443900
vt 1.97824600 0.25443900
vt 1.87567900 0.06266200
vt 1.87567900 0.06266200
vt 1.87567900 0.06266200
vt 1.88180700 0.25443900
vt 1.88180700 0.25443900
vt 1.88180700 0.25443900
vt 3.42428900 0.25443900
vt 1.83013600 0.25431600
vt 1.83013600 0.25431600
vt 5.24034000 0.26113300
vt 5.24034000 0.26113300
vt 3.43492300 0.25443900
vt 4.27007700 0.25436100
vt 4.27007700 0.25436100
vt 4.30806400 0.26125900
vt 0.99658500 0.01864700
vt 0.99658500 0.01864700
vt 0.99658500 0.01864700
vt -0.09760100 3.46609500
vt -0.09760100 3.46609500
vt -0.09760100 3.46609500
vt -0.09760100 3.46609500
vt -0.09760100 3.46609500
vt -1.74519400 4.41954900
vt -1.74519400 4.41954900
vt -1.74519400 4.41954900
vt -1.86738400 4.14926300
vt -1.86738400 4.14926300
vt -1.95503000 3.86582100
vt 3.24773900 4.99819200
vt 1.35791800 4.59912100
vt 1.35791800 4.59912100
vt 1.35791800 4.59912100
vt 3.42851000 4.76301900
vt 3.42851000 4.76301900
vt 3.42851000 4.76301900
vt 1.13862600 4.52794000
vt 1.57005000 3.34865200
vt 1.75059200 3.41584700
vt 1.75059200 3.41584700
vt 1.75059200 3.41584700
vt 1.75059200 3.41584700
vt 0.88820900 4.49784700
vt 1.55427400 3.28392400
vt 0.72799100 4.50313800
vt 1.55837700 3.21069200
vt 1.55837700 3.21069200
vt 1.55837700 3.21069200
vt 1.55837700 3.21069200
vt 1.55837700 3.21069200
vt 0.33124500 4.58230000
vt 0.33124500 4.58230000
vt 0.16730400 4.64769000
vt 0.16730400 4.64769000
vt 0.16730400 4.64769000
vt 0.16730400 4.64769000
vt -0.06354500 3.45032400
vt -0.06354500 3.45032400
vt 0.52431700 4.52572100
vt -0.02672800 3.42377400
vt -0.02584400 3.37868200
vt -0.02584400 3.37868200
vt -0.02584400 3.37868200
vt -0.02584400 3.37868200
vt -1.59709900 4.67655400
vt -1.59709900 4.67655400
vt 3.72339300 4.24677400
vt 1.29255400 0.03829600
vt 1.29255400 0.03829600
vt 0.10864800 0.14162600
vt 1.58517500 0.08686000
vt 1.58517500 0.08686000
vt 1.75565800 0.12900500
vt 3.58535800 4.51125900
vt 3.58535800 4.51125900
vt 0.40599800 0.06657400
vt 0.40599800 0.06657400
vt 0.70011400 0.02810300
vt 0.70011400 0.02810300
vt -1.42452600 4.91780700
f 2/2/2 49/49/49 5/5/5
f 3/3/3 46/46/46 8/8/8
f 7/7/7 42/42/42 9/9/9
f 64/64/64 58/58/58 59/59/59
f 86/86/86 81/81/81 84/84/84
f 15/15/15 89/89/89 38/38/38
f 14/14/14 36/36/36 16/16/16
f 17/17/17 32/32/32 19/19/19
f 21/21/21 31/31/31 93/93/93
f 26/26/26 92/92/92 54/54/54
f 25/25/25 52/52/52 27/27/27
f 29/29/29 53/53/53 90/90/90
f 40/40/40 56/56/56 9/9/9
f 63/63/63 70/70/70 67/67/67
f 68/68/68 76/76/76 73/73/73
f 74/74/74 83/83/83 79/79/79
f 106/106/106 97/97/97 102/102/102
f 108/108/108 110/110/110 112/112/112
f 116/116/116 109/109/109 115/115/115
f 121/121/121 116/116/116 115/115/115
f 123/123/123 122/122/122 121/121/121
f 130/130/130 99/99/99 136/136/136
f 135/135/135 137/137/137 129/129/129
f 142/142/142 95/95/95 124/124/124
f 123/123/123 139/139/139 128/128/128
f 123/123/123 138/138/138 139/139/139
f 144/144/144 132/132/132 158/158/158
f 98/98/98 134/134/134 104/104/104
f 117/117/117 114/114/114 111/111/111
f 118/118/118 145/145/145 152/152/152
f 140/140/140 156/156/156 96/96/96
f 94/94/94 147/147/147 127/127/127
f 154/154/154 141/141/141 148/148/148
f 150/150/150 126/126/126 146/146/146
f 1/1/1 85/85/85 47/47/47
f 4/4/4 48/48/48 44/44/44
f 6/6/6 45/45/45 41/41/41
f 65/65/65 62/62/62 57/57/57
f 87/87/87 10/10/10 80/80/80
f 12/12/12 11/11/11 88/88/88
f 13/13/13 39/39/39 35/35/35
f 18/18/18 37/37/37 33/33/33
f 20/20/20 19/19/19 34/34/34
f 23/23/23 22/22/22 91/91/91
f 24/24/24 54/54/54 51/51/51
f 30/30/30 28/28/28 50/50/50
f 43/43/43 60/60/60 55/55/55
f 61/61/61 66/66/66 71/71/71
f 69/69/69 72/72/72 78/78/78
f 75/75/75 77/77/77 82/82/82
f 105/105/105 107/107/107 101/101/101
f 116/116/116 120/120/120 109/109/109
f 121/121/121 122/122/122 116/116/116
f 123/123/123 128/128/128 122/122/122
f 129/129/129 131/131/131 100/100/100
f 135/135/135 138/138/138 137/137/137
f 123/123/123 137/137/137 138/138/138
f 143/143/143 103/103/103 133/133/133
f 119/119/119 153/153/153 113/113/113
f 155/155/155 157/157/157 142/142/142
f 149/149/149 151/151/151 125/125/125

