mtllib material.mtl
usemtl Material_#110
v 12.02619300 6.74057400 3.71396000
v 11.82478100 6.74057400 3.82807400
v 12.07569400 6.74057400 3.80133100
v 11.87428300 6.74057400 3.91544500
v 11.61166500 6.74057400 4.55645300
v 11.66116700 6.74057400 4.64382400
v 11.86257800 6.74057400 4.52971000
v 11.81307600 6.74057400 4.44233900
v 9.89803100 6.74057400 2.58587100
v 9.69662000 6.74057400 2.69998500
v 9.94753300 6.74057400 2.67324200
v 9.74612100 6.74057400 2.78735500
v 9.48350300 6.74057400 3.42836400
v 9.53300600 6.74057400 3.51573400
v 9.73441700 6.74057400 3.40162100
v 9.68491500 6.74057400 3.31425000
v 10.03408100 6.74057400 5.63957200
v 10.09317500 6.74057400 5.86339400
v 10.13117200 6.74057400 5.61393700
v 10.19026800 6.74057400 5.83775900
v 10.74332900 6.74057400 6.25487100
v 10.84042200 6.74057400 6.22923700
v 10.78132600 6.74057400 6.00541400
v 10.68423400 6.74057400 6.03105000
v 8.47729300 6.71261700 4.89944900
v 8.39280700 6.71261700 4.84517000
v 8.26768100 6.71261700 5.03993200
v 8.35216700 6.71261700 5.09421100
v 8.37999300 6.71261700 4.84675900
v 8.29550700 6.71261700 4.79248000
v 8.17038200 6.71261700 4.98724200
v 8.25486900 6.71261700 5.04152000
v 8.28589500 6.71261700 4.78993000
v 8.20140900 6.71261700 4.73565100
v 8.07628400 6.71261700 4.93041200
v 8.16077000 6.71261700 4.98469100
vn -0.00000000 1.00000000 -0.00000000
vn -0.00000000 1.00000000 -0.00000000
vn -0.00000000 1.00000000 -0.00000000
vn -0.00000000 1.00000000 -0.00000000
vn -0.00000000 1.00000000 -0.00000000
vn -0.00000000 1.00000000 -0.00000000
vn -0.00000000 1.00000000 -0.00000000
vn -0.00000000 1.00000000 -0.00000000
vn -0.00000000 1.00000000 -0.00000000
vn -0.00000000 1.00000000 -0.00000000
vn -0.00000000 1.00000000 -0.00000000
vn -0.00000000 1.00000000 -0.00000000
vn -0.00000000 1.00000000 -0.00000000
vn -0.00000000 1.00000000 -0.00000000
vn -0.00000000 1.00000000 -0.00000000
vn -0.00000000 1.00000000 -0.00000000
vn -0.00000000 1.00000000 -0.00000000
vn -0.00000000 1.00000000 -0.00000000
vn -0.00000000 1.00000000 -0.00000000
vn -0.00000000 1.00000000 -0.00000000
vn -0.00000000 1.00000000 -0.00000000
vn -0.00000000 1.00000000 -0.00000000
vn -0.00000000 1.00000000 -0.00000000
vn -0.00000000 1.00000000 -0.00000000
vn -0.00000000 1.00000000 -0.00000000
vn -0.00000000 1.00000000 -0.00000000
vn -0.00000000 1.00000000 -0.00000000
vn -0.00000000 1.00000000 -0.00000000
vn -0.00000000 1.00000000 -0.00000000
vn -0.00000000 1.00000000 -0.00000000
vn -0.00000000 1.00000000 -0.00000000
vn -0.00000000 1.00000000 -0.00000000
vn -0.00000000 1.00000000 -0.00000000
vn -0.00000000 1.00000000 -0.00000000
vn -0.00000000 1.00000000 -0.00000000
vn -0.00000000 1.00000000 -0.00000000
vt 0.73294900 0.01723400
vt 0.73294900 0.99280400
vt 0.30975300 0.01723400
vt 0.30975300 0.99280400
vt 0.30975300 0.01723400
vt 0.73294900 0.01723400
vt 0.73294900 0.99280400
vt 0.30975300 0.99280400
vt 0.73294900 0.01723400
vt 0.73294900 0.99280400
vt 0.30975300 0.01723400
vt 0.30975300 0.99280400
vt 0.30975300 0.01723400
vt 0.73294900 0.01723400
vt 0.73294900 0.99280400
vt 0.30975300 0.99280400
vt 0.73294900 0.01723400
vt 0.73294900 0.99280400
vt 0.30975300 0.01723400
vt 0.30975300 0.99280400
vt 0.30975300 0.01723400
vt 0.73294900 0.01723400
vt 0.73294900 0.99280400
vt 0.30975300 0.99280400
vt 0.30975300 0.01723400
vt 0.73294900 0.01723400
vt 0.73294900 0.99280400
vt 0.30975300 0.99280400
vt 0.30975300 0.01723400
vt 0.73294900 0.01723400
vt 0.73294900 0.99280400
vt 0.30975300 0.99280400
vt 0.30975300 0.01723400
vt 0.73294900 0.01723400
vt 0.73294900 0.99280400
vt 0.30975300 0.99280400
f 2/2/2 3/3/3 1/1/1
f 6/6/6 8/8/8 5/5/5
f 2/2/2 4/4/4 3/3/3
f 6/6/6 7/7/7 8/8/8
f 10/10/10 11/11/11 9/9/9
f 14/14/14 16/16/16 13/13/13
f 10/10/10 12/12/12 11/11/11
f 14/14/14 15/15/15 16/16/16
f 18/18/18 19/19/19 17/17/17
f 22/22/22 24/24/24 21/21/21
f 27/27/27 25/25/25 26/26/26
f 30/30/30 32/32/32 29/29/29
f 35/35/35 33/33/33 34/34/34
f 18/18/18 20/20/20 19/19/19
f 22/22/22 23/23/23 24/24/24
f 27/27/27 28/28/28 25/25/25
f 30/30/30 31/31/31 32/32/32
f 35/35/35 36/36/36 33/33/33

