mtllib material.mtl
usemtl Material_#75
v 14.96307600 -0.08596500 1.53936300
v 15.03530200 -0.08596500 0.06910600
v 14.96306600 -0.08596500 -1.40120300
v 14.74707000 -0.08596500 -2.85729700
v 4.26821300 -0.08596500 -0.90225300
v 3.33119100 -0.08596500 -0.77283000
v 3.16323200 -0.08596500 -0.48914000
v 3.12020500 -0.08596500 -0.10942700
v 0.79180700 -0.08596500 14.99687700
v 2.96166000 -0.08596500 14.78088600
v 5.77555700 -0.08596500 13.92729700
v 7.10625000 -0.08596500 13.29792400
v 9.55120100 -0.08596500 11.66426300
v 11.63045900 -0.08596500 9.58500500
v 13.26412100 -0.08596500 7.14005700
v 13.89349600 -0.08596500 5.80935800
v 14.38940400 -0.08596500 4.42337600
v 14.74708000 -0.08596500 2.99546100
v -2.11502900 -0.08596500 -8.54181500
v -2.11502900 -0.08596500 -8.54181500
v -2.11502900 -0.08596500 -8.54181500
v -2.11502900 -0.08596500 -8.54181500
v -2.11502900 -0.08596500 -8.54181500
v -1.38870100 -0.08596500 -8.05225400
v -0.51182600 -0.08596500 -7.57478600
v 0.45222700 -0.08596500 -7.25104600
v 1.22371100 -0.08596500 -7.05687500
v 2.46986300 -0.08596500 -6.93944700
v 3.60827100 -0.08596500 -7.05403300
v 13.19349600 -0.08596500 -7.00188000
v 12.43671900 -0.08596500 -8.26447800
v 10.57128000 -0.08596500 -10.53751700
v 8.29823200 -0.08596500 -12.40295100
v 5.70493200 -0.08596500 -13.78909400
v 4.31895500 -0.08596500 -14.28500500
v 1.43494100 -0.08596500 -14.85866600
v 1.43494100 -0.08596500 -14.85866600
v -0.03531200 -0.08596500 -14.93089300
v -1.50556600 -0.08596500 -14.85866500
v -2.96166000 -0.08596500 -14.64267300
v -2.96166000 -0.08596500 -14.64267300
v -2.96166000 -0.08596500 -14.64267300
v -4.27420900 -0.08596500 -11.95436300
v -5.56165000 -0.08596500 -11.53038000
v -6.55148400 -0.08596500 -11.10228700
v -7.27499000 -0.08596500 -10.65070100
v -4.46096700 -0.08596500 -9.49912600
v -3.71594700 -0.08596500 -12.07712700
v -3.71594700 -0.08596500 -12.07712700
v -3.71594700 -0.08596500 -12.07712700
v -4.39960000 -0.13595600 -14.28336400
vn -0.00000000 1.00000000 -0.00000000
vn -0.00000000 1.00000000 -0.00000000
vn -0.00000000 1.00000000 -0.00000000
vn -0.00000000 1.00000000 -0.00000000
vn -0.00000000 1.00000000 -0.00000000
vn -0.00000000 1.00000000 -0.00000000
vn -0.00000000 1.00000000 -0.00000000
vn -0.00000000 1.00000000 -0.00000000
vn -0.00000000 1.00000000 -0.00000000
vn -0.00000000 1.00000000 -0.00000000
vn -0.00000000 1.00000000 -0.00000000
vn -0.00000000 1.00000000 -0.00000000
vn -0.00000000 1.00000000 -0.00000000
vn -0.00000000 1.00000000 -0.00000000
vn -0.00000000 1.00000000 -0.00000000
vn -0.00000000 1.00000000 -0.00000000
vn -0.00000000 1.00000000 -0.00000000
vn -0.00000000 1.00000000 -0.00000000
vn -0.00100000 1.00000000 -0.00050000
vn 0.01150000 0.99990000 0.00340000
vn -0.00110000 1.00000000 0.00030000
vn -0.00110000 1.00000000 -0.00030000
vn -0.00090000 1.00000000 -0.00060000
vn -0.00000000 1.00000000 -0.00000000
vn -0.00000000 1.00000000 -0.00000000
vn -0.00000000 1.00000000 -0.00000000
vn -0.00000000 1.00000000 -0.00000000
vn -0.00000000 1.00000000 -0.00000000
vn -0.00000000 1.00000000 -0.00000000
vn -0.00000000 1.00000000 -0.00000000
vn -0.00000000 1.00000000 -0.00000000
vn -0.00000000 1.00000000 -0.00000000
vn -0.00000000 1.00000000 -0.00000000
vn -0.00000000 1.00000000 -0.00000000
vn -0.00000000 1.00000000 -0.00000000
vn -0.00980000 0.99990000 -0.00660000
vn -0.00000000 1.00000000 -0.00000000
vn -0.00000000 1.00000000 -0.00000000
vn -0.00000000 1.00000000 -0.00000000
vn -0.03200000 0.99950000 -0.00720000
vn 0.00680000 1.00000000 0.00030000
vn -0.00600000 1.00000000 -0.00180000
vn -0.00000000 1.00000000 -0.00000000
vn -0.00000000 1.00000000 -0.00000000
vn -0.00000000 1.00000000 -0.00000000
vn -0.00000000 1.00000000 -0.00000000
vn -0.00000000 1.00000000 -0.00000000
vn -0.00790000 1.00000000 -0.00230000
vn 0.00440000 1.00000000 0.00210000
vn -0.03690000 0.99920000 -0.01580000
vn -0.03750000 0.99920000 -0.01100000
vt -0.17425000 0.14718000
vt 0.39394600 0.10151800
vt 0.96389800 0.11176900
vt 1.53008300 0.17783100
vt 0.89958500 4.25722400
vt 0.86077700 4.62145600
vt 0.75299700 4.68988000
vt 0.60654700 4.71110700
vt -5.21231000 5.79425000
vt -5.15484300 4.95180500
vt -4.85835100 3.85240700
vt -4.63077800 3.32978100
vt -4.02791400 2.36378800
vt -3.24817900 1.53396600
vt -2.32153600 0.87221300
vt -1.81406700 0.61258600
vt -1.28359700 0.40395200
vt -0.73522900 0.24831700
vt 3.99866500 6.27839900
vt 3.99866500 6.27839900
vt 3.99866500 6.27839900
vt 3.99866500 6.27839900
vt 3.99866500 6.27839900
vt 3.84976100 5.97365000
vt 3.71354900 5.61180100
vt 3.64095600 5.22474500
vt 3.60775500 4.91847400
vt 3.62938200 4.43426200
vt 3.73422700 4.00378500
vt 4.22698500 0.32482200
vt 4.67074100 0.68260900
vt 5.44271800 1.51964600
vt 6.03656100 2.49120800
vt 6.42945100 3.55995200
vt 6.54550200 4.11803800
vt 6.61123500 5.25481900
vt 6.61123500 5.25481900
vt 6.56028500 5.82255700
vt 6.45393700 6.38257500
vt 6.29320000 6.92947100
vt 6.29320000 6.92947100
vt 6.29320000 6.92947100
vt 5.19195400 7.28905400
vt 4.95844300 7.77474200
vt 4.74375900 8.13549700
vt 4.53882100 8.40396300
vt 4.24032100 7.22934000
vt 5.26890400 7.08151400
vt 5.26890400 7.08151400
vt 5.26890400 7.08151400
vt 6.07848000 7.46173400
f 8/8/8 10/10/10 11/11/11
f 38/38/38 25/25/25 36/36/36
f 5/5/5 3/3/3 4/4/4
f 6/6/6 2/2/2 3/3/3
f 2/2/2 8/8/8 1/1/1
f 27/27/27 35/35/35 26/26/26
f 26/26/26 37/37/37 25/25/25
f 39/39/39 19/19/19 24/24/24
f 43/43/43 23/23/23 48/48/48
f 47/47/47 44/44/44 45/45/45
f 45/45/45 46/46/46 47/47/47
f 38/38/38 24/24/24 25/25/25
f 28/28/28 34/34/34 27/27/27
f 29/29/29 33/33/33 28/28/28
f 29/29/29 31/31/31 32/32/32
f 29/29/29 30/30/30 31/31/31
f 41/41/41 49/49/49 20/20/20
f 18/18/18 1/1/1 8/8/8
f 17/17/17 18/18/18 8/8/8
f 16/16/16 17/17/17 8/8/8
f 15/15/15 16/16/16 8/8/8
f 14/14/14 15/15/15 8/8/8
f 13/13/13 14/14/14 8/8/8
f 11/11/11 12/12/12 8/8/8
f 12/12/12 13/13/13 8/8/8
f 8/8/8 9/9/9 10/10/10
f 5/5/5 6/6/6 3/3/3
f 6/6/6 7/7/7 2/2/2
f 2/2/2 7/7/7 8/8/8
f 27/27/27 34/34/34 35/35/35
f 26/26/26 35/35/35 37/37/37
f 39/39/39 42/42/42 21/21/21
f 43/43/43 44/44/44 22/22/22
f 47/47/47 22/22/22 44/44/44
f 38/38/38 39/39/39 24/24/24
f 28/28/28 33/33/33 34/34/34
f 29/29/29 32/32/32 33/33/33
f 40/40/40 51/51/51 50/50/50

