mtllib material.mtl
usemtl Material_#13.001
v -3.24511300 4.35158100 11.52341600
v -3.24719300 4.84215000 11.52302600
v -1.01061600 4.36140900 11.96601400
v -1.01269600 4.85197800 11.96562400
v -5.88841300 3.68153800 10.96165500
v -6.00317600 4.15801400 10.94015200
v -3.24820600 4.34293900 11.52449400
v -3.36296800 4.81941500 11.50299200
v -0.56965500 4.36140900 9.73133000
v -2.80415200 4.35158100 9.28873200
v -2.80623300 4.84215000 9.28834200
v -0.57173600 4.85197800 9.73094000
v -2.77807100 4.34293900 9.29556800
v -5.41828000 3.68153800 8.73272800
v -5.53304200 4.15801400 8.71122600
v -2.89283300 4.81941600 9.27406500
v -0.52627200 4.34293900 9.69919000
v 2.11393700 3.68153800 10.26202900
v 2.22870000 4.15801400 10.28353100
v -0.41150900 4.81941600 9.72069300
v -0.98162800 4.34293900 12.00683000
v 1.65858100 3.68153800 12.56966900
v 1.77334400 4.15801400 12.59117100
v -0.86686600 4.81941600 12.02833300
vn 0.19430000 -0.00000000 -0.98090000
vn 0.19430000 -0.00000000 -0.98090000
vn 0.19430000 -0.00000000 -0.98090000
vn 0.19430000 -0.00000000 -0.98090000
vn 0.20710000 0.00570000 -0.97830000
vn 0.20710000 0.00570000 -0.97830000
vn 0.20710000 0.00570000 -0.97830000
vn 0.20710000 0.00570000 -0.97830000
vn 0.19430000 -0.00000000 -0.98090000
vn 0.19430000 -0.00000000 -0.98090000
vn 0.19430000 -0.00000000 -0.98090000
vn 0.19430000 -0.00000000 -0.98090000
vn 0.20710000 0.00570000 -0.97830000
vn 0.20710000 0.00570000 -0.97830000
vn 0.20710000 0.00570000 -0.97830000
vn 0.20710000 0.00570000 -0.97830000
vn -0.20710000 0.00570000 0.97830000
vn -0.20710000 0.00570000 0.97830000
vn -0.20710000 0.00570000 0.97830000
vn -0.20710000 0.00570000 0.97830000
vn -0.20710000 0.00570000 0.97830000
vn -0.20710000 0.00570000 0.97830000
vn -0.20710000 0.00570000 0.97830000
vn -0.20710000 0.00570000 0.97830000
vt 0.86791600 0.78641500
vt 0.86795300 0.98631600
vt 0.09492000 0.78662500
vt 0.09495800 0.98652500
vt 0.99132700 0.46642900
vt 0.97436600 0.66283500
vt 0.04208400 0.46403400
vt 0.02512200 0.66044000
vt 0.09492000 0.78662500
vt 0.86791600 0.78641500
vt 0.86795300 0.98631600
vt 0.09495800 0.98652500
vt 0.04208400 0.46403400
vt 0.99132700 0.46642900
vt 0.97436600 0.66283500
vt 0.02512200 0.66044000
vt 0.04208400 0.46403400
vt 0.99132700 0.46642900
vt 0.97436600 0.66283500
vt 0.02512200 0.66044000
vt 0.04208400 0.46403400
vt 0.99132700 0.46642900
vt 0.97436600 0.66283500
vt 0.02512200 0.66044000
f 2/2/2 3/3/3 1/1/1
f 6/6/6 7/7/7 5/5/5
f 11/11/11 9/9/9 10/10/10
f 15/15/15 13/13/13 14/14/14
f 19/19/19 17/17/17 18/18/18
f 23/23/23 21/21/21 22/22/22
f 2/2/2 4/4/4 3/3/3
f 6/6/6 8/8/8 7/7/7
f 11/11/11 12/12/12 9/9/9
f 15/15/15 16/16/16 13/13/13
f 19/19/19 20/20/20 17/17/17
f 23/23/23 24/24/24 21/21/21

