mtllib material.mtl
usemtl Material_#76
v -8.29825200 1.47613500 12.54114700
v -7.03565400 1.47613500 13.29792200
v -4.32037100 1.47613500 -2.54300400
v -4.27460900 1.47613500 -2.80998100
v -4.39444300 1.47613500 -2.99073500
v -4.61174800 1.47613500 -3.12292700
v -13.19350500 1.47613500 -7.00185800
v -13.82288100 1.47613500 -5.67115900
v -14.31879800 1.47613500 -4.28517800
v -14.67647500 1.47613500 -2.85726200
v -14.89247000 1.47613500 -1.40116400
v -14.96469700 1.47613500 0.06909400
v -14.89247000 1.47613500 1.53935100
v -14.67647500 1.47613500 2.99545000
v -14.31880900 1.47613500 4.42336600
v -13.82289000 1.47613500 5.80934800
v -13.19352500 1.47613500 7.14004900
v -12.43674800 1.47613500 8.40265300
v -11.55986300 1.47613500 9.58499900
v -10.57129900 1.47613500 10.67570300
v -9.48060500 1.47613500 11.66425800
v -4.30395500 1.47613500 -2.63877100
v -14.44710000 1.47613500 3.91116100
v -14.75395500 1.47613500 -2.33494800
v -4.32441400 1.47613500 -2.92589700
v -7.70273400 1.47613500 12.89808600
vn -0.00000000 1.00000000 -0.00000000
vn -0.00000000 1.00000000 -0.00000000
vn -0.00000000 1.00000000 -0.00000000
vn -0.00000000 1.00000000 -0.00000000
vn -0.00000000 1.00000000 -0.00000000
vn -0.00000000 1.00000000 -0.00000000
vn -0.00000000 1.00000000 -0.00000000
vn -0.00000000 1.00000000 -0.00000000
vn -0.00000000 1.00000000 -0.00000000
vn -0.00000000 1.00000000 -0.00000000
vn -0.00000000 1.00000000 -0.00000000
vn -0.00000000 1.00000000 -0.00000000
vn -0.00000000 1.00000000 -0.00000000
vn -0.00000000 1.00000000 -0.00000000
vn -0.00000000 1.00000000 -0.00000000
vn -0.00000000 1.00000000 -0.00000000
vn -0.00000000 1.00000000 -0.00000000
vn -0.00000000 1.00000000 -0.00000000
vn -0.00000000 1.00000000 -0.00000000
vn -0.00000000 1.00000000 -0.00000000
vn -0.00000000 1.00000000 -0.00000000
vn -0.00000000 1.00000000 -0.00000000
vn -0.00000000 1.00000000 -0.00000000
vn -0.00000000 1.00000000 -0.00000000
vn -0.00000000 1.00000000 -0.00000000
vn -0.00000000 1.00000000 -0.00000000
vt 4.56817300 1.96103000
vt 4.79548800 2.33286200
vt 0.11282000 3.17776400
vt 0.03390100 3.19200500
vt -0.01992300 3.15699700
vt -0.05962200 3.09300500
vt -1.23021200 0.56242900
vt -0.83789100 0.37265500
vt -0.42885500 0.22224800
vt -0.00705100 0.11265800
vt 0.42346800 0.04494000
vt 0.85855300 0.01974700
vt 1.29400800 0.03732100
vt 1.72564500 0.09749300
vt 2.14930600 0.19968000
vt 2.56091000 0.34290600
vt 2.95649400 0.52578100
vt 3.33224800 0.74655400
vt 3.68455300 1.00309200
vt 4.01001900 1.29293000
vt 4.30550700 1.61326800
vt 0.08451200 3.18287300
vt 1.99733500 0.16302700
vt 0.14738200 0.08836600
vt -0.00054600 3.17756000
vt 4.67538700 2.13640800
f 19/19/19 3/3/3 18/18/18
f 6/6/6 8/8/8 5/5/5
f 5/5/5 8/8/8 9/9/9
f 5/5/5 9/9/9 10/10/10
f 25/25/25 11/11/11 4/4/4
f 4/4/4 11/11/11 12/12/12
f 4/4/4 12/12/12 13/13/13
f 4/4/4 13/13/13 14/14/14
f 3/3/3 23/23/23 15/15/15
f 3/3/3 15/15/15 16/16/16
f 3/3/3 17/17/17 18/18/18
f 3/3/3 16/16/16 17/17/17
f 19/19/19 20/20/20 3/3/3
f 20/20/20 21/21/21 3/3/3
f 1/1/1 3/3/3 21/21/21
f 5/5/5 24/24/24 25/25/25
f 22/22/22 14/14/14 23/23/23
f 26/26/26 2/2/2 3/3/3
f 6/6/6 7/7/7 8/8/8
f 25/25/25 24/24/24 11/11/11
f 3/3/3 22/22/22 23/23/23
f 1/1/1 26/26/26 3/3/3
f 5/5/5 10/10/10 24/24/24
f 22/22/22 4/4/4 14/14/14

