mtllib material.mtl
usemtl Material_#25.001
v 6.89810100 1.33296500 -4.87835500
v 4.22941700 1.33296500 -4.77368300
v 6.96609000 1.32585500 -3.14488900
v 4.29740700 1.32585500 -3.04021700
v 6.92947100 1.32968400 -4.07853800
v 4.26078700 1.32968400 -3.97386700
v 6.92157100 1.33051000 -4.27994700
v 4.25288700 1.33051000 -4.17527600
v 6.93775400 1.32881800 -3.86735200
v 4.26907000 1.32881800 -3.76268100
v 6.58437800 1.21979900 -5.27887500
v 4.50956900 1.21062300 -5.18343100
v 6.57281600 1.09943000 -5.55029000
v 4.49800700 1.09025400 -5.45484600
v 6.56247000 0.98477300 -5.79067800
v 4.48766100 0.97559700 -5.69523300
v 6.55212800 0.86679500 -6.03099800
v 4.47731800 0.85761900 -5.93555400
v 6.54161600 0.75171800 -6.27563100
v 4.46680600 0.74254200 -6.18018700
v 6.53209700 0.64509600 -6.49492400
v 4.45728800 0.63592000 -6.39948000
v 6.52282900 0.53853800 -6.70787300
v 4.44801900 0.52936200 -6.61243000
v 6.51368000 0.43211300 -6.91771700
v 4.43887100 0.42293700 -6.82227200
v 6.50401400 0.31413300 -7.14079500
v 4.42920500 0.30495700 -7.04535200
v 6.49397800 0.21728600 -7.37329100
v 4.41916800 0.20811000 -7.27784600
v 4.41916800 0.20811000 -7.27784600
v 6.48607500 0.12934000 -7.55140000
v 6.48607500 0.12934000 -7.55140000
v 4.41087200 0.12016400 -7.46596500
v 4.41087200 0.12016400 -7.46596500
v 4.41087200 0.12016400 -7.46596500
v 6.46756400 0.04519500 -7.79520200
v 4.40234600 0.04519500 -7.71420100
v 6.46140800 -0.03134200 -7.95215700
v 4.39619000 -0.03134200 -7.87115500
v 4.33449600 0.04524600 -7.47263400
v 4.20708100 -0.03138500 -7.46795100
v 6.55469200 0.04524000 -7.56445800
v 6.68280900 -0.03138300 -7.56979800
v 6.68280900 -0.03138300 -7.56979800
v 6.52279600 0.04519500 -7.67339200
v 6.52279600 0.04519500 -7.67339200
v 6.52279600 0.04519500 -7.67339200
v 6.59072100 -0.03134200 -7.76777300
v 6.59072100 -0.03134200 -7.76777300
v 4.27058600 -0.03134200 -7.67445600
v 4.27058600 -0.03134200 -7.67445600
v 4.27058600 -0.03134200 -7.67445600
v 4.35012800 0.04519500 -7.58064300
v 4.35012800 0.04519500 -7.58064300
v 4.35012800 0.04519500 -7.58064300
v 6.88911200 1.33390500 -5.10753400
v 4.22042800 1.33390500 -5.00286300
v 4.30338200 1.32523000 -2.88785600
v 4.30338200 1.32523000 -2.88785600
v 4.30338200 1.32523000 -2.88785600
v 6.97206600 1.32523000 -2.99252800
v 6.97206600 1.32523000 -2.99252800
v 6.97206600 1.32523000 -2.99252800
v 4.58543800 1.21979900 -2.73154800
v 6.66024700 1.21062300 -2.82699200
v 4.59700000 1.09943000 -2.46013300
v 6.67180900 1.09025300 -2.55557700
v 4.60734600 0.98477300 -2.21974500
v 6.68215600 0.97559700 -2.31518900
v 4.61768900 0.86679500 -1.97942500
v 6.69249800 0.85761900 -2.07487000
v 4.62820100 0.75171800 -1.73479200
v 6.70301000 0.74254100 -1.83023600
v 4.63771900 0.64509600 -1.51549900
v 6.71252800 0.63592000 -1.61094400
v 4.64698800 0.53853800 -1.30255000
v 6.72179800 0.52936200 -1.39799300
v 4.65613600 0.43211300 -1.09270500
v 6.73094500 0.42293700 -1.18815100
v 4.66580200 0.31413300 -0.86962700
v 6.74061200 0.30495700 -0.96507200
v 4.67583900 0.21728600 -0.63713200
v 6.75064800 0.20811000 -0.73257800
v 6.75064800 0.20811000 -0.73257800
v 4.68374200 0.12934000 -0.45902300
v 4.68374200 0.12934000 -0.45902300
v 4.68374200 0.12934000 -0.45902300
v 6.75894500 0.12016400 -0.54445800
v 6.75894500 0.12016400 -0.54445800
v 4.70225300 0.04519500 -0.21522100
v 6.76747000 0.04519500 -0.29622300
v 4.70840900 -0.03134200 -0.05826600
v 6.77362600 -0.03134200 -0.13926800
v 6.81968900 0.04519500 -0.42978000
v 6.81968900 0.04519500 -0.42978000
v 6.81968900 0.04519500 -0.42978000
v 6.89923100 -0.03134200 -0.33596800
v 6.89923100 -0.03134200 -0.33596800
v 6.89923100 -0.03134200 -0.33596800
v 4.57909500 -0.03134200 -0.24265100
v 4.57909500 -0.03134200 -0.24265100
v 4.64702100 0.04519500 -0.33703100
v 4.64702100 0.04519500 -0.33703100
v 4.64702100 0.04519500 -0.33703100
v 4.48700800 -0.03138300 -0.44062500
v 4.48700800 -0.03138300 -0.44062500
v 4.61512500 0.04524000 -0.44596400
v 6.83532000 0.04524600 -0.53778900
v 6.96273500 -0.03138500 -0.54247200
v 4.41233800 0.21968400 -7.42466700
v 6.48732900 0.22886000 -7.51551200
v 6.48732900 0.22886000 -7.51551200
v 4.42061800 0.31029500 -7.23572900
v 6.49542700 0.31947100 -7.33117400
v 4.43056500 0.42828900 -7.00541200
v 6.50537400 0.43746500 -7.10085500
v 4.44014000 0.53471700 -6.78464800
v 6.51495000 0.54389300 -6.88009300
v 4.44931400 0.64127100 -6.57415800
v 6.52412400 0.65044700 -6.66960100
v 4.45814000 0.74821000 -6.37080600
v 6.53294900 0.75738600 -6.46625100
v 4.46752400 0.86343600 -6.15415400
v 6.54233300 0.87261300 -6.24959900
v 4.47800900 0.98142100 -5.91015500
v 6.55281900 0.99059700 -6.00560000
v 4.48838000 1.09606000 -5.66920100
v 6.56319000 1.10523600 -5.76464600
v 4.49875400 1.21647800 -5.42786000
v 6.57356300 1.22565400 -5.52330400
v 4.46324000 1.33449000 -5.15524800
v 6.63242100 1.33453800 -5.25219000
v 4.54907100 1.33342900 -2.75136000
v 6.70128400 1.33337900 -2.84803900
v 6.70128400 1.33337900 -2.84803900
v 4.59640600 1.22573600 -2.48367300
v 6.67121500 1.21656000 -2.57911800
v 4.60672000 1.10529300 -2.24368100
v 6.68153000 1.09611700 -2.33912500
v 4.61710400 0.99066100 -2.00245500
v 6.69191400 0.98148500 -2.09790000
v 4.62755100 0.87265200 -1.75933100
v 6.70235900 0.86347600 -1.85477600
v 4.63710900 0.75754400 -1.53884600
v 6.71191800 0.74836800 -1.63429200
v 4.64628600 0.65084600 -1.32781500
v 6.72109600 0.64167000 -1.42325900
v 4.65535400 0.54422400 -1.11968500
v 6.73016300 0.53504800 -1.21513000
v 4.66535500 0.43805300 -0.88944700
v 6.74016400 0.42887700 -0.98489100
v 4.67538000 0.32008600 -0.65728700
v 6.75018900 0.31091000 -0.75273200
v 4.68341500 0.23047500 -0.47507500
v 4.68341500 0.23047500 -0.47507500
v 6.75843000 0.22129900 -0.56527900
v 6.75463100 0.12162400 -0.31283000
v 6.75463100 0.12162400 -0.31283000
v 6.75463100 0.12162400 -0.31283000
v 4.70059400 0.12225500 -0.24179600
v 4.70059400 0.12225500 -0.24179600
v 6.94520200 0.04516700 -0.54209800
v 6.94520200 0.04516700 -0.54209800
v 6.88827500 0.04519500 -0.34930300
v 6.88827500 0.04519500 -0.34930300
v 6.77277900 0.04519500 -0.16085400
v 4.70756200 0.04519500 -0.07985200
v 4.58843700 0.04519500 -0.25563000
v 4.58843700 0.04519500 -0.25563000
v 4.50461600 0.04516500 -0.44162900
v 4.50461600 0.04516500 -0.44162900
v 7.08166600 -0.03141700 -0.54713700
v 7.08166600 -0.03141700 -0.54713700
v 6.96192100 -0.03134200 -0.27070900
v 6.96192100 -0.03134200 -0.27070900
v 6.77946100 -0.03134200 0.00948200
v 4.71424300 -0.03134200 0.09048500
v 4.51741200 -0.03134300 -0.17489100
v 4.51741200 -0.03134300 -0.17489100
v 4.51741200 -0.03134300 -0.17489100
v 4.37021000 -0.03142200 -0.43604400
v 6.46328700 0.12267100 -7.76485300
v 6.46328700 0.12267100 -7.76485300
v 6.46328700 0.12267100 -7.76485300
v 4.41290700 0.12153800 -7.68393300
v 4.41290700 0.12153800 -7.68393300
v 6.65245800 0.04517400 -7.56829300
v 6.65245800 0.04517400 -7.56829300
v 6.57462400 0.04519500 -7.74540700
v 6.57462400 0.04519500 -7.74540700
v 6.57462400 0.04519500 -7.74540700
v 6.46286600 0.04519500 -7.91496200
v 4.39764900 0.04519500 -7.83396100
v 4.28945100 0.04519500 -7.65184000
v 4.28945100 0.04519500 -7.65184000
v 4.23728500 0.04517600 -7.46882200
v 4.23728500 0.04517600 -7.46882200
v 6.78354100 -0.03141700 -7.57374900
v 6.64391900 -0.03134200 -7.82621100
v 6.64391900 -0.03134200 -7.82621100
v 6.64391900 -0.03134200 -7.82621100
v 6.45637600 -0.03134200 -8.08044600
v 4.39115900 -0.03134200 -7.99944500
v 4.21651900 -0.03134200 -7.73073800
v 4.21651900 -0.03134200 -7.73073800
v 4.10450900 -0.03141300 -7.46392800
v 4.10450900 -0.03141300 -7.46392800
v 4.36752400 0.12152800 -7.56643400
v 4.35589000 0.12152800 -7.47170500
v 6.51161300 0.12268900 -7.65778400
v 6.53892500 0.12279200 -7.56217700
v 6.80083100 0.12156100 -0.44145200
v 6.80083100 0.12156100 -0.44145200
v 6.81218800 0.12154900 -0.53852500
v 4.65379400 0.12313500 -0.35953100
v 4.62979700 0.12339400 -0.44900400
vn 0.00020000 1.00000000 0.00410000
vn 0.00020000 1.00000000 0.00410000
vn 0.00020000 1.00000000 0.00410000
vn 0.00020000 1.00000000 0.00410000
vn 0.00020000 1.00000000 0.00410000
vn 0.00020000 1.00000000 0.00410000
vn 0.00020000 1.00000000 0.00410000
vn 0.00020000 1.00000000 0.00410000
vn 0.00020000 1.00000000 0.00410000
vn 0.00020000 1.00000000 0.00410000
vn -0.00330000 0.99970000 0.02410000
vn -0.00330000 0.99970000 0.02410000
vn -0.00320000 0.99960000 0.02720000
vn -0.00320000 0.99960000 0.02720000
vn -0.00320000 0.99960000 0.02720000
vn -0.00320000 0.99960000 0.02720000
vn -0.00320000 0.99960000 0.02670000
vn -0.00320000 0.99960000 0.02670000
vn -0.00300000 0.99950000 0.02990000
vn -0.00300000 0.99950000 0.02990000
vn -0.00300000 0.99950000 0.03080000
vn -0.00300000 0.99950000 0.03080000
vn -0.00300000 0.99950000 0.03120000
vn -0.00300000 0.99950000 0.03120000
vn -0.00310000 0.99960000 0.02930000
vn -0.00310000 0.99960000 0.02930000
vn -0.00310000 0.99960000 0.02820000
vn -0.00310000 0.99960000 0.02820000
vn -0.00070000 0.99670000 0.08110000
vn -0.00070000 0.99670000 0.08110000
vn -0.00100000 0.99690000 0.07860000
vn 0.04990000 0.99790000 -0.04220000
vn 0.05290000 0.99830000 -0.02380000
vn 0.00520000 0.99980000 -0.02050000
vn 0.00940000 0.99990000 -0.00420000
vn 0.01280000 0.99980000 0.01310000
vn -0.00000000 1.00000000 -0.00000000
vn -0.00000000 1.00000000 -0.00000000
vn -0.00000000 1.00000000 -0.00000000
vn -0.00000000 1.00000000 -0.00000000
vn -0.00070000 1.00000000 -0.00060000
vn -0.00030000 1.00000000 0.00010000
vn 0.00070000 1.00000000 -0.00060000
vn 0.00020000 1.00000000 0.00010000
vn 0.00030000 1.00000000 0.00010000
vn 0.00040000 1.00000000 -0.00030000
vn 0.00070000 1.00000000 -0.00060000
vn 0.00010000 1.00000000 0.00010000
vn -0.00000000 1.00000000 -0.00000000
vn -0.00020000 1.00000000 -0.00000000
vn -0.00020000 1.00000000 0.00020000
vn -0.00000000 1.00000000 -0.00000000
vn -0.00030000 1.00000000 0.00010000
vn -0.00010000 1.00000000 0.00010000
vn -0.00070000 1.00000000 -0.00060000
vn -0.00000000 1.00000000 -0.00000000
vn 0.00020000 1.00000000 0.00410000
vn 0.00020000 1.00000000 0.00410000
vn -0.00050000 0.99990000 -0.01200000
vn -0.00100000 1.00000000 -0.00930000
vn 0.01750000 0.99970000 -0.01900000
vn -0.00040000 0.99990000 -0.01230000
vn -0.00040000 1.00000000 -0.00980000
vn -0.01380000 0.99990000 0.00380000
vn 0.00330000 0.99970000 -0.02410000
vn 0.00330000 0.99970000 -0.02410000
vn 0.00320000 0.99960000 -0.02720000
vn 0.00320000 0.99960000 -0.02720000
vn 0.00320000 0.99960000 -0.02720000
vn 0.00320000 0.99960000 -0.02720000
vn 0.00320000 0.99960000 -0.02670000
vn 0.00320000 0.99960000 -0.02670000
vn 0.00300000 0.99950000 -0.02990000
vn 0.00300000 0.99950000 -0.02990000
vn 0.00300000 0.99950000 -0.03080000
vn 0.00300000 0.99950000 -0.03080000
vn 0.00300000 0.99950000 -0.03120000
vn 0.00300000 0.99950000 -0.03120000
vn 0.00310000 0.99960000 -0.02930000
vn 0.00310000 0.99960000 -0.02930000
vn 0.00310000 0.99960000 -0.02820000
vn 0.00310000 0.99960000 -0.02820000
vn 0.00070000 0.99670000 -0.08110000
vn 0.00100000 0.99690000 -0.07860000
vn 0.00070000 0.99670000 -0.08110000
vn -0.04750000 0.99800000 0.04060000
vn -0.04610000 0.99870000 0.02240000
vn -0.01430000 0.99910000 0.03980000
vn -0.00880000 0.99990000 -0.01440000
vn -0.01010000 0.99990000 0.00430000
vn -0.00000000 1.00000000 -0.00000000
vn -0.00000000 1.00000000 -0.00000000
vn -0.00000000 1.00000000 -0.00000000
vn -0.00000000 1.00000000 -0.00000000
vn 0.00010000 1.00000000 -0.00010000
vn -0.00000000 1.00000000 -0.00000000
vn 0.00070000 1.00000000 0.00060000
vn 0.00020000 1.00000000 -0.00020000
vn -0.00000000 1.00000000 -0.00000000
vn 0.00030000 1.00000000 -0.00010000
vn -0.00000000 1.00000000 -0.00000000
vn -0.00020000 1.00000000 -0.00010000
vn -0.00000000 1.00000000 -0.00000000
vn -0.00010000 1.00000000 -0.00010000
vn -0.00070000 1.00000000 0.00060000
vn -0.00030000 1.00000000 -0.00010000
vn -0.00020000 1.00000000 -0.00010000
vn -0.00070000 1.00000000 0.00060000
vn 0.00070000 1.00000000 0.00060000
vn 0.00030000 1.00000000 -0.00010000
vn -0.00100000 0.99690000 0.07860000
vn -0.00070000 0.99670000 0.08110000
vn -0.00100000 0.99690000 0.07860000
vn -0.00310000 0.99960000 0.02820000
vn -0.00310000 0.99960000 0.02820000
vn -0.00310000 0.99960000 0.02930000
vn -0.00310000 0.99960000 0.02930000
vn -0.00300000 0.99950000 0.03120000
vn -0.00300000 0.99950000 0.03120000
vn -0.00300000 0.99950000 0.03080000
vn -0.00300000 0.99950000 0.03080000
vn -0.00300000 0.99950000 0.02990000
vn -0.00300000 0.99950000 0.02990000
vn -0.00320000 0.99960000 0.02670000
vn -0.00320000 0.99960000 0.02670000
vn -0.00320000 0.99960000 0.02720000
vn -0.00320000 0.99960000 0.02720000
vn -0.00320000 0.99960000 0.02720000
vn -0.00320000 0.99960000 0.02720000
vn -0.00330000 0.99970000 0.02410000
vn -0.00330000 0.99970000 0.02410000
vn 0.00020000 1.00000000 0.00410000
vn 0.00020000 1.00000000 0.00410000
vn -0.00250000 0.99850000 -0.05550000
vn -0.00240000 0.99810000 -0.06080000
vn -0.00250000 0.99850000 -0.05550000
vn 0.00330000 0.99970000 -0.02410000
vn 0.00330000 0.99970000 -0.02410000
vn 0.00320000 0.99960000 -0.02720000
vn 0.00320000 0.99960000 -0.02720000
vn 0.00320000 0.99960000 -0.02720000
vn 0.00320000 0.99960000 -0.02720000
vn 0.00320000 0.99960000 -0.02670000
vn 0.00320000 0.99960000 -0.02670000
vn 0.00300000 0.99950000 -0.02990000
vn 0.00300000 0.99950000 -0.02990000
vn 0.00300000 0.99950000 -0.03080000
vn 0.00300000 0.99950000 -0.03080000
vn 0.00300000 0.99950000 -0.03120000
vn 0.00300000 0.99950000 -0.03120000
vn 0.00310000 0.99960000 -0.02930000
vn 0.00310000 0.99960000 -0.02930000
vn 0.00310000 0.99960000 -0.02820000
vn 0.00310000 0.99960000 -0.02820000
vn 0.00070000 0.99670000 -0.08110000
vn 0.00100000 0.99690000 -0.07860000
vn 0.00100000 0.99690000 -0.07860000
vn -0.00720000 0.99950000 0.03220000
vn -0.00220000 1.00000000 0.00530000
vn -0.00050000 0.99990000 -0.01350000
vn -0.03470000 0.99850000 0.04190000
vn -0.03310000 0.99920000 0.02190000
vn 0.00010000 1.00000000 -0.00010000
vn 0.00070000 1.00000000 0.00060000
vn -0.00000000 1.00000000 -0.00000000
vn 0.00010000 1.00000000 -0.00010000
vn -0.00000000 1.00000000 -0.00000000
vn -0.00000000 1.00000000 -0.00000000
vn -0.00000000 1.00000000 -0.00000000
vn -0.00010000 1.00000000 -0.00010000
vn -0.00010000 1.00000000 -0.00010000
vn -0.00070000 1.00000000 0.00060000
vn 0.00020000 1.00000000 -0.00020000
vn 0.00030000 1.00000000 -0.00010000
vn -0.00000000 1.00000000 -0.00000000
vn -0.00010000 1.00000000 -0.00000000
vn -0.00000000 1.00000000 -0.00000000
vn -0.00000000 1.00000000 -0.00000000
vn -0.00000000 1.00000000 -0.00000000
vn -0.00030000 1.00000000 -0.00010000
vn -0.00020000 1.00000000 -0.00010000
vn -0.00030000 1.00000000 -0.00010000
vn 0.02500000 0.99950000 -0.01840000
vn 0.02060000 0.99940000 0.02610000
vn 0.02220000 0.99900000 -0.03790000
vn 0.00330000 1.00000000 -0.00510000
vn 0.00600000 0.99990000 0.01330000
vn 0.00070000 1.00000000 -0.00060000
vn 0.00010000 1.00000000 0.00010000
vn 0.00030000 1.00000000 0.00010000
vn 0.00030000 1.00000000 -0.00020000
vn 0.00010000 1.00000000 0.00010000
vn -0.00000000 1.00000000 -0.00000000
vn -0.00000000 1.00000000 -0.00000000
vn -0.00010000 1.00000000 0.00010000
vn -0.00000000 1.00000000 -0.00000000
vn -0.00010000 1.00000000 0.00010000
vn -0.00070000 1.00000000 -0.00060000
vn 0.00030000 1.00000000 0.00010000
vn -0.00020000 1.00000000 -0.00000000
vn -0.00000000 1.00000000 -0.00000000
vn -0.00000000 1.00000000 0.00020000
vn -0.00000000 1.00000000 -0.00000000
vn -0.00000000 1.00000000 -0.00000000
vn -0.00000000 1.00000000 -0.00000000
vn -0.00020000 1.00000000 0.00020000
vn -0.00020000 1.00000000 0.00020000
vn -0.00030000 1.00000000 0.00010000
vn 0.01380000 0.99990000 0.00380000
vn 0.01760000 0.99980000 0.00210000
vn 0.07540000 0.99670000 -0.02940000
vn 0.08660000 0.99590000 -0.02570000
vn -0.01290000 0.99990000 -0.00370000
vn -0.01300000 0.99990000 -0.00370000
vn -0.01720000 0.99990000 -0.00200000
vn -0.08990000 0.99540000 0.03400000
vn -0.10390000 0.99410000 0.03070000
vt 1.69448200 0.17010200
vt 2.76720500 0.17010200
vt 1.69448200 0.86690300
vt 2.76720500 0.86690300
vt 1.69448200 0.49160400
vt 2.76720500 0.49160400
vt 1.69448200 0.41064300
vt 2.76720500 0.41064400
vt 1.69448200 0.57649500
vt 2.76720500 0.57649500
vt -1.56715300 0.82912000
vt -0.57460300 0.81481100
vt 1.95529900 0.47676400
vt 2.94789300 0.48754600
vt 10.66889600 0.26976800
vt 11.66154800 0.27146300
vt 1.13941900 0.97761500
vt 2.13206900 0.98031800
vt 15.65896100 -0.01715700
vt 16.65160800 -0.02066400
vt 10.80767200 0.27921800
vt 11.80021300 0.26435300
vt 6.40573600 0.45174100
vt 7.39835300 0.44316500
vt 1.97386400 0.26509100
vt 2.96650600 0.27012100
vt 0.98673500 0.41126300
vt 1.97931200 0.42362100
vt 1.76833000 0.09975900
vt 2.76090600 0.11211400
vt 2.76090600 0.11211400
vt 3.77163800 0.87832500
vt 3.77163800 0.87832500
vt 3.06223500 0.89664000
vt 3.06223500 0.89664000
vt 3.06223500 0.89664000
vt 0.10518700 0.67243400
vt 0.87907500 0.66660500
vt 0.09909500 0.79362200
vt 0.88740700 0.78918400
vt 0.92225200 0.73753400
vt 0.98462100 0.91900900
vt 0.06547900 0.74180100
vt 0.01995700 0.93485800
vt 0.01995700 0.93485800
vt 0.08095700 0.70471300
vt 0.08095700 0.70471300
vt 0.08095700 0.70471300
vt 0.05055400 0.86028500
vt 0.05055400 0.86028500
vt 0.94249700 0.84787100
vt 0.94249700 0.84787100
vt 0.94249700 0.84787100
vt 0.90625200 0.69977200
vt 0.90625200 0.69977200
vt 0.90625200 0.69977200
vt 1.69448200 0.07797800
vt 2.76720500 0.07797800
vt 2.76720500 0.92814800
vt 2.76720500 0.92814800
vt 2.76720500 0.92814800
vt 1.69448200 0.92814800
vt 1.69448200 0.92814800
vt 1.69448200 0.92814800
vt 2.97930700 0.24599000
vt 3.97188900 0.25794400
vt -0.36670200 0.44676400
vt 0.62589300 0.45754600
vt 4.29169600 0.26976800
vt 5.28434800 0.27146300
vt 9.11461900 0.25761400
vt 10.10726900 0.26031800
vt 1.94656100 0.26284300
vt 2.93920800 0.25933600
vt 1.78287100 0.27921800
vt 2.77541300 0.26435300
vt 1.65773600 0.64174100
vt 2.65035300 0.63316500
vt 1.94786400 0.42509100
vt 2.94050600 0.43012100
vt 5.35621900 0.14677200
vt 6.34879500 0.15913000
vt 1.76233000 0.77975900
vt 2.75490600 0.79211400
vt 2.75490600 0.79211400
vt 3.86254500 0.75874100
vt 3.86254500 0.75874100
vt 3.86254500 0.75874100
vt 3.15291300 0.75737400
vt 3.15291300 0.75737400
vt 0.10518700 0.67243400
vt 0.87907500 0.66660500
vt 0.09909500 0.79362200
vt 0.88740700 0.78918400
vt 0.90625200 0.69977200
vt 0.90625200 0.69977200
vt 0.90625200 0.69977200
vt 0.94249700 0.84787100
vt 0.94249700 0.84787100
vt 0.94249700 0.84787100
vt 0.05055400 0.86028500
vt 0.05055400 0.86028500
vt 0.08095700 0.70471300
vt 0.08095700 0.70471300
vt 0.08095700 0.70471300
vt 0.01995700 0.93485800
vt 0.01995700 0.93485800
vt 0.06547900 0.74180100
vt 0.92225200 0.73753400
vt 0.98462100 0.91900900
vt 2.76185400 0.03106400
vt 1.76927800 0.01870800
vt 1.76927800 0.01870800
vt 1.98027600 0.34619700
vt 0.98769800 0.33384000
vt 2.96689900 0.19248600
vt 1.97425700 0.18745600
vt 7.39768200 0.36548100
vt 6.40506600 0.37405700
vt 11.79905000 0.18673100
vt 10.80650800 0.20159700
vt 16.65131800 -0.10288500
vt 15.65867000 -0.09938000
vt 2.13229800 0.89592900
vt 1.13964900 0.89322500
vt 11.66169200 0.18698400
vt 10.66904000 0.18528900
vt 2.94880800 0.40331900
vt 1.95621400 0.39253700
vt -0.57582700 0.72989000
vt -1.56837700 0.74419800
vt 2.66735400 0.02064000
vt 1.79522800 0.01587900
vt 2.66303600 0.99235600
vt 1.79772400 0.98743300
vt 1.79772400 0.98743300
vt 2.98034500 0.15986800
vt 3.97292700 0.17182300
vt -0.36577700 0.36171400
vt 0.62681700 0.37249500
vt 4.29184100 0.18435800
vt 5.28449300 0.18605300
vt 9.11485000 0.17264900
vt 10.10750000 0.17535300
vt 1.94626300 0.17832400
vt 2.93891000 0.17481800
vt 1.78162100 0.19581800
vt 2.77416400 0.18095200
vt 1.65702400 0.55925600
vt 2.64964100 0.55068000
vt 1.94830100 0.33892700
vt 2.94094200 0.34395700
vt 5.35729300 0.06041800
vt 6.34987100 0.07277400
vt 1.76341000 0.68740300
vt 1.76341000 0.68740300
vt 2.75598700 0.69976000
vt 3.15748700 0.83639300
vt 3.15748700 0.83639300
vt 3.15748700 0.83639300
vt 3.85970100 0.83313900
vt 3.85970100 0.83313900
vt 0.95978600 0.73198700
vt 0.95978600 0.73198700
vt 0.92136200 0.66592500
vt 0.92136200 0.66592500
vt 0.87600000 0.61324000
vt 0.10087100 0.61340500
vt 0.06528600 0.67331500
vt 0.06528600 0.67331500
vt 0.03698200 0.74244100
vt 0.03698200 0.74244100
vt 1.01728000 0.91471500
vt 1.01728000 0.91471500
vt 0.95546700 0.82325700
vt 0.95546700 0.82325700
vt 0.88010400 0.74122400
vt 0.09536800 0.73969300
vt 0.03355200 0.83037500
vt 0.03355200 0.83037500
vt 0.03355200 0.83037500
vt -0.01665900 0.92961700
vt 3.76874300 0.95163500
vt 3.76874300 0.95163500
vt 3.76874300 0.95163500
vt 3.06791100 0.97088900
vt 3.06791100 0.97088900
vt 0.04026800 0.74236800
vt 0.04026800 0.74236800
vt 0.06709300 0.67693500
vt 0.06709300 0.67693500
vt 0.06709300 0.67693500
vt 0.10136900 0.62021100
vt 0.87635500 0.61939400
vt 0.91962000 0.66982800
vt 0.91962000 0.66982800
vt 0.95545800 0.73262600
vt 0.95545800 0.73262600
vt -0.01162200 0.93033800
vt 0.03589100 0.83448900
vt 0.03589100 0.83448900
vt 0.03589100 0.83448900
vt 0.09588100 0.74711100
vt 0.88110900 0.74782100
vt 0.95368300 0.82664200
vt 0.95368300 0.82664200
vt 1.01278800 0.91530600
vt 1.01278800 0.91530600
vt 3.04975500 0.93187200
vt 3.04362400 0.89984700
vt 3.78277100 0.91403400
vt 3.78989700 0.88081800
vt 3.13999200 0.79309900
vt 3.13999200 0.79309900
vt 3.13481500 0.76011000
vt 3.87410200 0.79231500
vt 3.88109700 0.76144700
f 4/4/4 63/63/63 3/3/3
f 58/58/58 1/1/1 57/57/57
f 10/10/10 3/3/3 9/9/9
f 8/8/8 5/5/5 7/7/7
f 2/2/2 7/7/7 1/1/1
f 6/6/6 9/9/9 5/5/5
f 132/132/132 57/57/57 133/133/133
f 130/130/130 11/11/11 131/131/131
f 128/128/128 13/13/13 129/129/129
f 126/126/126 15/15/15 127/127/127
f 124/124/124 17/17/17 125/125/125
f 122/122/122 19/19/19 123/123/123
f 120/120/120 21/21/21 121/121/121
f 118/118/118 23/23/23 119/119/119
f 116/116/116 25/25/25 117/117/117
f 114/114/114 27/27/27 115/115/115
f 112/112/112 30/30/30 29/29/29
f 185/185/185 34/34/34 32/32/32
f 194/194/194 37/37/37 193/193/193
f 204/204/204 39/39/39 203/203/203
f 35/35/35 209/209/209 210/210/210
f 38/38/38 196/196/196 56/56/56
f 40/40/40 205/205/205 52/52/52
f 44/44/44 200/200/200 50/50/50
f 48/48/48 189/189/189 192/192/192
f 35/35/35 186/186/186 209/209/209
f 61/61/61 135/135/135 62/62/62
f 138/138/138 65/65/65 137/137/137
f 140/140/140 67/67/67 139/139/139
f 142/142/142 69/69/69 141/141/141
f 144/144/144 71/71/71 143/143/143
f 146/146/146 73/73/73 145/145/145
f 148/148/148 75/75/75 147/147/147
f 150/150/150 77/77/77 149/149/149
f 152/152/152 79/79/79 151/151/151
f 154/154/154 81/81/81 153/153/153
f 155/155/155 85/85/85 83/83/83
f 158/158/158 86/86/86 161/161/161
f 167/167/167 91/91/91 168/168/168
f 178/178/178 94/94/94 93/93/93
f 90/90/90 214/214/214 215/215/215
f 92/92/92 165/165/165 96/96/96
f 94/94/94 175/175/175 99/99/99
f 107/107/107 181/181/181 102/102/102
f 104/104/104 171/171/171 170/170/170
f 90/90/90 159/159/159 213/213/213
f 91/91/91 169/169/169 168/168/168
f 163/163/163 95/95/95 166/166/166
f 93/93/93 179/179/179 178/178/178
f 100/100/100 174/174/174 110/110/110
f 37/37/37 190/190/190 193/193/193
f 197/197/197 54/54/54 195/195/195
f 39/39/39 201/201/201 203/203/203
f 53/53/53 208/208/208 42/42/42
f 183/183/183 33/33/33 211/211/211
f 211/211/211 33/33/33 212/212/212
f 162/162/162 87/87/87 216/216/216
f 216/216/216 87/87/87 217/217/217
f 4/4/4 59/59/59 64/64/64
f 58/58/58 2/2/2 1/1/1
f 10/10/10 4/4/4 3/3/3
f 8/8/8 6/6/6 5/5/5
f 2/2/2 8/8/8 7/7/7
f 6/6/6 10/10/10 9/9/9
f 132/132/132 58/58/58 57/57/57
f 130/130/130 12/12/12 11/11/11
f 128/128/128 14/14/14 13/13/13
f 126/126/126 16/16/16 15/15/15
f 124/124/124 18/18/18 17/17/17
f 122/122/122 20/20/20 19/19/19
f 120/120/120 22/22/22 21/21/21
f 118/118/118 24/24/24 23/23/23
f 116/116/116 26/26/26 25/25/25
f 114/114/114 28/28/28 27/27/27
f 113/113/113 111/111/111 31/31/31
f 184/184/184 187/187/187 36/36/36
f 194/194/194 38/38/38 37/37/37
f 204/204/204 40/40/40 39/39/39
f 38/38/38 194/194/194 196/196/196
f 40/40/40 204/204/204 205/205/205
f 45/45/45 199/199/199 202/202/202
f 47/47/47 43/43/43 188/188/188
f 60/60/60 134/134/134 136/136/136
f 138/138/138 66/66/66 65/65/65
f 140/140/140 68/68/68 67/67/67
f 142/142/142 70/70/70 69/69/69
f 144/144/144 72/72/72 71/71/71
f 146/146/146 74/74/74 73/73/73
f 148/148/148 76/76/76 75/75/75
f 150/150/150 78/78/78 77/77/77
f 152/152/152 80/80/80 79/79/79
f 154/154/154 82/82/82 81/81/81
f 156/156/156 157/157/157 84/84/84
f 160/160/160 89/89/89 88/88/88
f 167/167/167 92/92/92 91/91/91
f 178/178/178 177/177/177 94/94/94
f 92/92/92 167/167/167 165/165/165
f 94/94/94 177/177/177 175/175/175
f 106/106/106 182/182/182 180/180/180
f 105/105/105 108/108/108 172/172/172
f 91/91/91 103/103/103 169/169/169
f 164/164/164 109/109/109 97/97/97
f 93/93/93 101/101/101 179/179/179
f 98/98/98 176/176/176 173/173/173
f 37/37/37 46/46/46 191/191/191
f 198/198/198 41/41/41 55/55/55
f 39/39/39 49/49/49 201/201/201
f 51/51/51 206/206/206 207/207/207

