mtllib material.mtl
usemtl Material_#12.001
v 6.74627300 1.58371500 -5.03906200
v 6.74627300 1.58371500 -5.03906200
v 6.66174400 0.58664500 -7.35328300
v 6.74562100 1.92073700 -5.12408000
v 6.66002200 0.92366600 -7.46557900
v 6.66002200 0.92366600 -7.46557900
v 6.82305800 1.52494500 -3.08217000
v 6.75266000 1.52494500 -4.99725100
v 6.82595300 1.91660600 -3.08227700
v 6.75555500 1.91660600 -4.99735700
v 4.32515300 1.92073700 -5.02914400
v 4.32580500 1.58371500 -4.94412700
v 4.32580500 1.58371500 -4.94412700
v 4.24127600 0.58664500 -7.25834800
v 4.23955400 0.92366600 -7.37064400
v 4.23955400 0.92366600 -7.37064400
v 4.40682200 1.91660600 -2.98739400
v 4.40392700 1.51980600 -2.98728800
v 4.33352900 1.51980600 -4.90236800
v 4.33642400 1.91660600 -4.90247400
v 4.41226600 1.92073700 -2.89880800
v 4.41161300 1.58371500 -2.98382400
v 4.41161300 1.58371500 -2.98382400
v 4.49614200 0.58664500 -0.66960400
v 4.49786400 0.92366700 -0.55730700
v 4.49786400 0.92366700 -0.55730700
v 6.82970500 1.92073700 -2.99362400
v 6.82905200 1.58371500 -3.07864000
v 6.82905200 1.58371500 -3.07864000
v 6.91358100 0.58664500 -0.76442100
v 6.91530300 0.92366700 -0.65212300
v 6.91530300 0.92366700 -0.65212300
vn 0.99940000 -0.00660000 -0.03370000
vn 0.99940000 -0.00620000 -0.03380000
vn 0.99940000 -0.00620000 -0.03380000
vn 0.99940000 -0.00660000 -0.03370000
vn 0.99940000 -0.00660000 -0.03370000
vn 0.99940000 -0.00620000 -0.03380000
vn 0.99930000 -0.00740000 -0.03670000
vn 0.99930000 -0.00740000 -0.03670000
vn 0.99930000 -0.00740000 -0.03670000
vn 0.99930000 -0.00740000 -0.03670000
vn 0.99940000 -0.00660000 -0.03370000
vn 0.99940000 -0.00660000 -0.03370000
vn 0.99940000 -0.00620000 -0.03380000
vn 0.99940000 -0.00620000 -0.03380000
vn 0.99940000 -0.00620000 -0.03380000
vn 0.99940000 -0.00660000 -0.03370000
vn 0.99930000 -0.00730000 -0.03670000
vn 0.99930000 -0.00730000 -0.03670000
vn 0.99930000 -0.00730000 -0.03670000
vn 0.99930000 -0.00730000 -0.03670000
vn -0.99940000 -0.00660000 0.03370000
vn -0.99940000 -0.00660000 0.03370000
vn -0.99940000 -0.00620000 0.03380000
vn -0.99940000 -0.00620000 0.03380000
vn -0.99940000 -0.00620000 0.03380000
vn -0.99940000 -0.00660000 0.03370000
vn -0.99940000 -0.00660000 0.03370000
vn -0.99940000 -0.00660000 0.03370000
vn -0.99940000 -0.00620000 0.03380000
vn -0.99940000 -0.00620000 0.03380000
vn -0.99940000 -0.00660000 0.03370000
vn -0.99940000 -0.00620000 0.03380000
vt 0.01584800 0.50304100
vt 0.01584800 0.50304100
vt 1.00383600 0.48405000
vt -0.00426900 0.66901700
vt 0.99703700 0.65553600
vt 0.99703700 0.65553600
vt 0.04007100 0.79767700
vt 0.94751800 0.79395700
vt 0.04083100 0.98314200
vt 0.94827800 0.97942200
vt -0.00426900 0.66901700
vt 0.01584800 0.50304100
vt 0.01584800 0.50304100
vt 1.00383600 0.48405000
vt 0.99703700 0.65553600
vt 0.99703700 0.65553600
vt 0.04083100 0.98314200
vt 0.04007100 0.79767700
vt 0.94751800 0.79395700
vt 0.94827800 0.97942200
vt -0.00426900 0.66901700
vt 0.01584800 0.50304100
vt 0.01584800 0.50304100
vt 1.00383600 0.48405000
vt 0.99703700 0.65553600
vt 0.99703700 0.65553600
vt -0.00426900 0.66901700
vt 0.01584800 0.50304100
vt 0.01584800 0.50304100
vt 1.00383600 0.48405000
vt 0.99703700 0.65553600
vt 0.99703700 0.65553600
f 1/1/1 5/5/5 4/4/4
f 8/8/8 9/9/9 7/7/7
f 12/12/12 16/16/16 11/11/11
f 19/19/19 17/17/17 18/18/18
f 22/22/22 26/26/26 21/21/21
f 28/28/28 31/31/31 27/27/27
f 2/2/2 3/3/3 6/6/6
f 8/8/8 10/10/10 9/9/9
f 13/13/13 14/14/14 15/15/15
f 19/19/19 20/20/20 17/17/17
f 23/23/23 24/24/24 25/25/25
f 29/29/29 30/30/30 32/32/32

