mtllib material.mtl
usemtl Material_#59
v 7.85450000 2.59391400 4.51161300
v 7.85291100 1.00912300 4.51246700
v 7.85291100 1.00912300 4.51246700
v 7.39783900 1.00732700 5.24831700
v 7.40471200 2.59437600 5.25074700
v 7.40471200 2.59437600 5.25074700
v 7.31672100 1.00699100 5.37960000
v 7.31672100 1.00699100 5.37960000
v 6.85486100 1.00498000 6.12773800
v 6.86863400 2.59497900 6.13445500
v 6.86863400 2.59497900 6.13445500
v 7.32458400 2.59446300 5.38264500
v 8.33711800 0.54505200 3.04684600
v 8.33711900 2.65141000 3.04684500
v 8.99431500 0.54505300 1.95652400
v 8.99431500 2.65140900 1.95652300
v 8.33589500 6.76652400 5.72427300
v 7.39947400 6.77333000 5.13497100
v 8.34222700 7.98279500 5.72826000
v 7.40580700 7.98960100 5.13895800
v 10.00938800 5.93686100 0.95133000
v 13.42537600 5.93686100 3.07021500
v 10.00938800 3.02310400 0.95133000
v 13.42537600 3.02310400 3.07021500
v 12.43542700 2.98549100 2.43909400
v 12.43542700 1.17589500 2.43909400
v 5.57715700 0.19598200 11.87115000
v 7.68992900 0.19598200 13.20074400
v 5.62759000 8.72127200 11.79101100
v 7.74036000 8.72127400 13.12060500
v 1.49853000 -0.11998300 10.88280700
v 1.48800100 0.53420200 10.88260700
v 1.77984900 -0.11448700 8.72017700
v 1.76932000 0.53969800 8.71997800
v 3.28010800 2.05566700 14.61588800
v 3.28366200 0.29458800 14.61385700
v 4.37837200 2.06404400 9.27246300
v 4.38192600 0.30296600 9.27043200
v 3.98647500 1.28070500 10.87927800
v 3.95655300 0.63113500 11.02119100
v 4.19644500 1.05326900 9.88251000
v 4.16652200 0.40369800 10.02442200
v 3.33878800 0.16983800 14.13727600
v 3.31730100 1.69739000 14.31827300
v 3.53008300 0.27525800 13.27027600
v 3.50859600 1.80281000 13.45127300
v 6.10653900 0.54505300 6.71961900
v 5.44934300 0.54505200 7.80994300
v 5.44934300 2.65141000 7.80994200
v 6.10654000 2.65140900 6.71961700
v 10.90304900 7.98279400 7.33981600
v 10.89671700 6.76652200 7.33583000
v 9.96029600 6.77332900 6.74652700
v 9.96662900 7.98960000 6.75051500
v 10.93147900 0.54505300 8.00634800
v 11.58867400 0.54505200 6.91602100
v 11.58867400 2.65141000 6.91602200
v 10.93147600 2.65140900 8.00634600
v 1.49804800 -0.11448700 11.26831000
v 1.21672900 -0.11998300 13.57354700
v 1.20620100 0.53420200 13.57333600
v 1.48751900 0.53969800 11.26809700
v 1.21645800 -0.11448700 13.93547300
v 1.20592900 0.53969800 13.93526100
v 1.08227600 0.53728200 14.94852800
v 1.09280400 -0.11690300 14.94874000
v 13.79761100 2.98549100 3.28403600
v 13.79761100 1.17589500 3.28403600
vn -0.85430000 0.00060000 -0.51980000
vn -0.85430000 0.00060000 -0.51980000
vn -0.85050000 0.00450000 -0.52600000
vn -0.85050000 0.00450000 -0.52600000
vn -0.85430000 0.00060000 -0.51980000
vn -0.85050000 0.00450000 -0.52600000
vn -0.85090000 0.00960000 -0.52530000
vn -0.85500000 0.00520000 -0.51860000
vn -0.85090000 0.00960000 -0.52530000
vn -0.85090000 0.00960000 -0.52530000
vn -0.85500000 0.00520000 -0.51860000
vn -0.85500000 0.00520000 -0.51860000
vn -0.85650000 -0.00000000 -0.51620000
vn -0.85650000 -0.00000000 -0.51620000
vn -0.85650000 -0.00000000 -0.51620000
vn -0.85650000 -0.00000000 -0.51620000
vn 0.53260000 -0.00000000 -0.84640000
vn 0.53260000 -0.00000000 -0.84640000
vn 0.53260000 -0.00000000 -0.84640000
vn 0.53260000 -0.00000000 -0.84640000
vn 0.52710000 -0.00000000 -0.84980000
vn 0.52710000 -0.00000000 -0.84980000
vn 0.52710000 -0.00000000 -0.84980000
vn 0.52710000 -0.00000000 -0.84980000
vn 0.52710000 -0.00000000 -0.84980000
vn 0.52710000 -0.00000000 -0.84980000
vn -0.53260000 0.01110000 0.84630000
vn -0.53260000 0.01110000 0.84630000
vn -0.53260000 0.01110000 0.84630000
vn -0.53260000 0.01110000 0.84630000
vn -0.99150000 -0.01600000 -0.12900000
vn -0.99150000 -0.01600000 -0.12900000
vn -0.99150000 -0.01600000 -0.12900000
vn -0.99150000 -0.01600000 -0.12900000
vn 0.97950000 0.00170000 0.20130000
vn 0.97950000 0.00170000 0.20130000
vn 0.97950000 0.00170000 0.20130000
vn 0.97950000 0.00170000 0.20130000
vn 0.97850000 -0.00000000 0.20610000
vn 0.97850000 -0.00000000 0.20610000
vn 0.97850000 -0.00000000 0.20610000
vn 0.97850000 -0.00000000 0.20610000
vn -0.97670000 0.01160000 -0.21410000
vn -0.97670000 0.01160000 -0.21410000
vn -0.97670000 0.01160000 -0.21410000
vn -0.97670000 0.01160000 -0.21410000
vn -0.85650000 -0.00000000 -0.51620000
vn -0.85650000 -0.00000000 -0.51620000
vn -0.85650000 -0.00000000 -0.51620000
vn -0.85650000 -0.00000000 -0.51620000
vn 0.53260000 -0.00000000 -0.84640000
vn 0.53260000 -0.00000000 -0.84640000
vn 0.53260000 -0.00000000 -0.84640000
vn 0.53260000 -0.00000000 -0.84640000
vn 0.85650000 -0.00000000 0.51620000
vn 0.85650000 -0.00000000 0.51620000
vn 0.85650000 -0.00000000 0.51620000
vn 0.85650000 -0.00000000 0.51620000
vn -0.99250000 -0.01600000 -0.12120000
vn -0.99250000 -0.01600000 -0.12120000
vn -0.99250000 -0.01600000 -0.12120000
vn -0.99250000 -0.01600000 -0.12120000
vn -0.99250000 -0.01600000 -0.12120000
vn -0.99250000 -0.01600000 -0.12120000
vn -0.99250000 -0.01600000 -0.12120000
vn -0.99250000 -0.01600000 -0.12120000
vn 0.52710000 -0.00000000 -0.84980000
vn 0.52710000 -0.00000000 -0.84980000
vt 0.28521600 0.46627900
vt 0.28539200 0.21860600
vt 0.28539200 0.21860600
vt 0.41117700 0.21832500
vt 0.41136000 0.46635100
vt 0.41136000 0.46635100
vt 0.41089100 0.47677400
vt 0.41089100 0.47677400
vt 0.53876600 0.47645900
vt 0.53941800 0.72497000
vt 0.53941800 0.72497000
vt 0.41114200 0.72488900
vt 0.42085400 0.74057900
vt 0.42085400 0.98948500
vt 0.28028600 0.74057900
vt 0.28028600 0.98948400
vt 0.44907800 0.79387500
vt 0.57156700 0.79468700
vt 0.44825000 0.93907200
vt 0.57073900 0.93988400
vt 0.99555400 0.77926200
vt 0.54653400 0.77926200
vt 0.99555400 0.42920400
vt 0.54653400 0.42920400
vt 0.99529000 0.42748100
vt 0.99529000 0.20808300
vt 0.00050000 0.00050000
vt 0.27177300 0.00050000
vt 0.00465100 0.99950000
vt 0.27592500 0.99950000
vt 0.99191600 0.78572600
vt 0.99215900 0.88081200
vt 0.67530600 0.78652500
vt 0.67555000 0.88161000
vt 0.36602700 0.20350700
vt 0.36633000 0.00050000
vt 0.99467500 0.20447300
vt 0.99497700 0.00146600
vt 0.59439400 0.98872400
vt 0.59898800 0.88755300
vt 0.75298700 0.99589500
vt 0.75758100 0.89472400
vt 0.38429700 0.49780800
vt 0.40527100 0.67390700
vt 0.28202100 0.50996100
vt 0.30299500 0.68606000
vt 0.28028600 0.74057900
vt 0.42085400 0.74057900
vt 0.42085400 0.98948500
vt 0.28028600 0.98948400
vt 0.44825000 0.93907200
vt 0.44907800 0.79387500
vt 0.57156700 0.79468700
vt 0.57073900 0.93988400
vt 0.28028600 0.74057900
vt 0.42085400 0.74057900
vt 0.42085400 0.98948500
vt 0.28028600 0.98948400
vt 0.67530600 0.78652500
vt 0.99191600 0.78572600
vt 0.99215900 0.88081200
vt 0.67555000 0.88161000
vt 0.67530600 0.78652500
vt 0.67555000 0.88161000
vt 0.81471500 0.88125900
vt 0.81447200 0.78617300
vt 0.81459300 0.42748100
vt 0.81459300 0.20808300
f 2/2/2 5/5/5 1/1/1
f 10/10/10 7/7/7 9/9/9
f 14/14/14 15/15/15 13/13/13
f 17/17/17 20/20/20 19/19/19
f 22/22/22 23/23/23 21/21/21
f 67/67/67 26/26/26 25/25/25
f 28/28/28 29/29/29 27/27/27
f 32/32/32 33/33/33 31/31/31
f 38/38/38 35/35/35 36/36/36
f 42/42/42 39/39/39 40/40/40
f 46/46/46 43/43/43 44/44/44
f 49/49/49 47/47/47 48/48/48
f 52/52/52 54/54/54 51/51/51
f 57/57/57 55/55/55 56/56/56
f 61/61/61 59/59/59 60/60/60
f 65/65/65 63/63/63 66/66/66
f 3/3/3 4/4/4 6/6/6
f 11/11/11 12/12/12 8/8/8
f 14/14/14 16/16/16 15/15/15
f 17/17/17 18/18/18 20/20/20
f 22/22/22 24/24/24 23/23/23
f 67/67/67 68/68/68 26/26/26
f 28/28/28 30/30/30 29/29/29
f 32/32/32 34/34/34 33/33/33
f 38/38/38 37/37/37 35/35/35
f 42/42/42 41/41/41 39/39/39
f 46/46/46 45/45/45 43/43/43
f 49/49/49 50/50/50 47/47/47
f 52/52/52 53/53/53 54/54/54
f 57/57/57 58/58/58 55/55/55
f 61/61/61 62/62/62 59/59/59
f 65/65/65 64/64/64 63/63/63

