mtllib material.mtl
usemtl Material_#109
v 7.16233400 0.00473100 -8.81616600
v 8.46047200 0.00473100 -8.81616600
v 7.16233400 0.00473100 -10.11430400
v 8.46047200 0.00473100 -10.11430400
v 5.34398200 0.00473100 2.57913500
v 6.64212000 0.00473100 2.57913500
v 5.34398200 0.00473100 1.28099800
v 6.64212000 0.00473100 1.28099800
vn -0.00000000 1.00000000 -0.00000000
vn -0.00000000 1.00000000 -0.00000000
vn -0.00000000 1.00000000 -0.00000000
vn -0.00000000 1.00000000 -0.00000000
vn -0.00000000 1.00000000 -0.00000000
vn -0.00000000 1.00000000 -0.00000000
vn -0.00000000 1.00000000 -0.00000000
vn -0.00000000 1.00000000 -0.00000000
vt 0.00000000 0.00000000
vt 1.00000000 0.00000000
vt 0.00000000 1.00000000
vt 1.00000000 1.00000000
vt 0.00000000 0.00000000
vt 1.00000000 0.00000000
vt 0.00000000 1.00000000
vt 1.00000000 1.00000000
f 2/2/2 3/3/3 1/1/1
f 2/2/2 4/4/4 3/3/3
f 6/6/6 7/7/7 5/5/5
f 6/6/6 8/8/8 7/7/7

