mtllib material.mtl
usemtl Material_#0.002
v -0.99104200 0.06835500 -8.10399200
v -0.99104200 0.06835500 -8.10399200
v -1.47239900 0.06835500 -8.91735200
v -1.47239900 0.06835500 -8.91735200
v -1.47239900 0.06835500 -8.91735200
v -1.47239900 0.06835500 -8.91735200
v -0.87550800 0.06835500 -11.24504900
v -0.87550800 0.06835500 -11.24504900
v -0.06214700 0.06835500 -11.72640500
v -0.06214700 0.06835500 -11.72640500
v 3.81628900 0.06835500 -10.04193200
v 3.81628900 0.06835500 -10.04193200
v 3.81628900 0.06835500 -10.04193200
v 2.40603700 0.06835500 -7.23287900
v 2.40603700 0.06835500 -7.23287900
v 3.33493200 0.06835500 -10.85529200
v 3.33493200 0.06835500 -10.85529200
v 3.33493200 0.06835500 -10.85529200
v 3.33493200 0.06835500 -10.85529200
v 3.21939800 0.06835500 -7.71423500
v 3.21939800 0.06835500 -7.71423500
v 3.21939800 0.06835500 -7.71423500
v 1.62362700 0.06835500 -11.29412300
v 3.50778600 0.06835500 -8.83886200
v -0.14104200 2.93533800 -11.67971400
v -0.14104200 0.97194300 -11.67971400
v -0.75794300 2.93533800 -11.31462500
v -0.75794300 0.97194300 -11.31462500
v 0.32557900 2.93533800 -11.62698100
v 1.47376000 2.93533800 -11.33255300
v 0.32557900 0.97194300 -11.62698100
v 1.47376000 0.97194300 -11.33255300
v 1.79902500 2.93533800 -11.24914600
v 2.96376000 2.93533800 -10.95047200
v 1.79902500 0.97194300 -11.24914600
v 2.96376000 0.97194300 -10.95047200
v 3.52812400 0.06835500 -8.91817600
v 3.52804200 2.60078500 -8.91785600
v 3.77119500 2.60229400 -9.86608000
v 3.77123700 0.06835500 -9.86624200
v 3.25122800 2.93533800 -7.83836400
v 3.25122800 0.97194300 -7.83836400
v 3.49168800 2.93533800 -8.77608700
v 3.49168800 0.97194300 -8.77608700
v -0.49951600 2.93533800 -7.97795000
v -0.49951600 0.97194300 -7.97795000
v 1.91451100 2.93533800 -7.35892100
v 1.91451100 0.97194300 -7.35892100
v -1.44056900 2.93533800 -9.04148100
v -1.44056900 0.97194300 -9.04148100
v -1.20010800 2.93533800 -9.97920300
v -1.20010800 0.97194300 -9.97920300
v 3.74671200 2.93533800 -10.15949600
v 3.74671200 0.97194300 -10.15949600
v 3.38162300 2.93533800 -10.77639900
v 3.38162300 0.97194300 -10.77639900
v 3.33493200 3.03197700 -10.85529200
v 3.33493200 3.03197700 -10.85529200
v 3.33493200 3.03197700 -10.85529200
v 3.33493200 3.03197700 -10.85529200
v 3.33493200 3.03197700 -10.85529200
v 3.33493200 3.03197700 -10.85529200
v 3.33493200 3.03197700 -10.85529200
v 1.63244100 3.03197700 -11.29186200
v -0.06214700 3.03197700 -11.72640500
v -0.06214700 3.03197700 -11.72640500
v -0.87550800 3.03197700 -11.24504900
v -0.87550800 3.03197700 -11.24504900
v -1.47239900 3.03197700 -8.91735200
v -1.47239900 3.03197700 -8.91735200
v -1.47239900 3.03197700 -8.91735200
v -1.47239900 3.03197700 -8.91735200
v -1.47239900 3.03197700 -8.91735200
v -1.47239900 3.03197700 -8.91735200
v -0.99104200 3.03197700 -8.10399200
v -0.99104200 3.03197700 -8.10399200
v 2.40603700 3.03197700 -7.23287900
v 2.40603700 3.03197700 -7.23287900
v 3.21939800 3.03197700 -7.71423500
v 3.21939800 3.03197700 -7.71423500
v 3.21939800 3.03197700 -7.71423500
v 3.21939800 3.03197700 -7.71423500
v 3.50653400 3.03197700 -8.83398200
v 3.81628800 3.03197700 -10.04193200
v 3.81628800 3.03197700 -10.04193200
v 3.81628800 3.03197700 -10.04193200
v 3.81628800 3.03197700 -10.04193200
vn -0.86060000 -0.00000000 0.50930000
vn -0.24840000 -0.00000000 0.96870000
vn -0.98720000 -0.09210000 0.13030000
vn -0.99000000 -0.00000000 0.14120000
vn -0.99000000 -0.00000000 0.14120000
vn -0.97930000 0.17650000 0.09940000
vn -0.50930000 -0.00000000 -0.86060000
vn -0.96870000 -0.00000000 -0.24840000
vn 0.24840000 -0.00000000 -0.96870000
vn -0.50930000 -0.00000000 -0.86060000
vn 0.99000000 -0.00000000 -0.14120000
vn 0.98990000 0.01830000 -0.14070000
vn 0.97840000 -0.18340000 -0.09580000
vn -0.24840000 -0.00000000 0.96870000
vn 0.50930000 -0.00000000 0.86060000
vn 0.60020000 -0.00000000 -0.79980000
vn 0.60010000 -0.00000000 -0.79990000
vn 0.61640000 0.15270000 -0.77250000
vn 0.60850000 -0.11020000 -0.78590000
vn 0.79290000 0.07820000 0.60430000
vn 0.79990000 -0.00000000 0.60010000
vn 0.77110000 -0.15630000 0.61720000
vn 0.24840000 -0.00000000 -0.96870000
vn 0.96870000 -0.00000000 0.24840000
vn -0.50930000 -0.00000000 -0.86060000
vn -0.50930000 -0.00000000 -0.86060000
vn -0.50930000 -0.00000000 -0.86060000
vn -0.50930000 -0.00000000 -0.86060000
vn 0.24840000 -0.00000000 -0.96870000
vn 0.24840000 -0.00000000 -0.96870000
vn 0.24840000 -0.00000000 -0.96870000
vn 0.24840000 -0.00000000 -0.96870000
vn 0.24840000 -0.00000000 -0.96870000
vn 0.24840000 -0.00000000 -0.96870000
vn 0.24840000 -0.00000000 -0.96870000
vn 0.24840000 -0.00000000 -0.96870000
vn 0.96870000 -0.00000000 0.24840000
vn 0.96870000 -0.00000000 0.24840000
vn 0.96870000 -0.00000000 0.24840000
vn 0.96870000 -0.00000000 0.24840000
vn 0.96870000 -0.00000000 0.24840000
vn 0.96870000 -0.00000000 0.24840000
vn 0.96870000 -0.00000000 0.24840000
vn 0.96870000 -0.00000000 0.24840000
vn -0.24840000 -0.00000000 0.96870000
vn -0.24840000 -0.00000000 0.96870000
vn -0.24840000 -0.00000000 0.96870000
vn -0.24840000 -0.00000000 0.96870000
vn -0.96870000 -0.00000000 -0.24840000
vn -0.96870000 -0.00000000 -0.24840000
vn -0.96870000 -0.00000000 -0.24840000
vn -0.96870000 -0.00000000 -0.24840000
vn 0.86060000 -0.00000000 -0.50930000
vn 0.86060000 -0.00000000 -0.50930000
vn 0.86060000 -0.00000000 -0.50930000
vn 0.86060000 -0.00000000 -0.50930000
vn 0.61540000 -0.14820000 -0.77410000
vn 0.57630000 0.13520000 -0.80600000
vn 0.60010000 -0.00000000 -0.79990000
vn 0.60420000 0.07720000 -0.79310000
vn 0.60030000 -0.01220000 -0.79970000
vn 0.60050000 0.01940000 -0.79940000
vn 0.59720000 -0.04800000 -0.80060000
vn 0.24840000 -0.00000000 -0.96870000
vn -0.50930000 -0.00000000 -0.86060000
vn 0.24840000 -0.00000000 -0.96870000
vn -0.50930000 -0.00000000 -0.86060000
vn -0.96870000 -0.00000000 -0.24840000
vn -0.98990000 0.01490000 0.14090000
vn -0.98590000 -0.07820000 0.14820000
vn -0.98700000 0.09570000 0.12940000
vn -0.97300000 0.15630000 0.16990000
vn -0.98990000 -0.01680000 0.14080000
vn -0.98540000 -0.11720000 0.12340000
vn -0.24840000 -0.00000000 0.96870000
vn -0.86060000 -0.00000000 0.50930000
vn 0.50930000 -0.00000000 0.86060000
vn -0.24840000 -0.00000000 0.96870000
vn 0.79990000 -0.00000000 0.60010000
vn 0.79980000 0.00010000 0.60020000
vn 0.80000000 -0.01680000 0.59980000
vn 0.80290000 0.09570000 0.58840000
vn 0.96870000 -0.00000000 0.24840000
vn 0.98330000 0.09910000 -0.15250000
vn 0.99000000 -0.00000000 -0.14120000
vn 0.99000000 -0.00000000 -0.14120000
vn 0.98980000 -0.01790000 -0.14160000
vt 8.91666800 0.02432600
vt 4.10603000 0.02545900
vt 8.39791700 0.02429700
vt 8.39791700 0.02429700
vt 8.56079400 0.02432600
vt 8.39791700 0.02429700
vt 6.45673800 0.02385800
vt 7.11831700 0.02429600
vt 3.95125900 0.02427400
vt 6.10082900 0.02419700
vt 1.56442000 0.02488900
vt 1.37197600 0.02488900
vt 1.37197600 0.02488900
vt 5.97350200 0.02545900
vt 6.62050200 0.02593800
vt 1.92029200 0.02488900
vt 2.08379000 0.02427400
vt 1.92029200 0.02488900
vt 1.92029200 0.02488900
vt 6.97637100 0.02593800
vt 0.09237300 0.02488900
vt 6.97637100 0.02593800
vt 3.02454100 0.02427400
vt 0.71061300 0.02488900
vt 6.13534700 1.55086500
vt 6.13534700 0.50535900
vt 6.42792300 1.54924600
vt 6.40522700 0.50569700
vt 3.74721600 1.55094300
vt 3.10692800 1.55094300
vt 3.74721600 0.50543500
vt 3.10692800 0.50543500
vt 2.92812100 1.55094300
vt 2.28783000 1.55094300
vt 2.92812100 0.50543500
vt 2.28783000 0.50543500
vt 0.75421600 0.02488900
vt 0.75404000 1.37340800
vt 1.27530500 1.37421200
vt 1.27539300 0.02488900
vt 0.16061200 1.55155800
vt 0.16061200 0.50605100
vt 0.67610500 1.55155800
vt 0.67610500 0.50605100
vt 4.37623700 1.55212800
vt 4.37623700 0.50662100
vt 5.70329900 1.55212800
vt 5.70329900 0.50662100
vt 8.32968100 1.55196500
vt 8.32968100 0.50545800
vt 7.81418800 1.55196500
vt 7.81418800 0.50545800
vt 1.61585700 1.55155800
vt 1.61585700 0.50605100
vt 1.88577000 1.55155600
vt 1.88577000 0.50605100
vt 1.92029200 1.60301800
vt 2.08379000 1.60240300
vt 2.08379000 1.60240300
vt 1.92029200 1.60301800
vt 1.92029200 1.60301800
vt 1.92029200 1.60301800
vt 2.08379000 1.60240300
vt 3.01969600 1.60240300
vt 6.10082900 1.60232600
vt 3.95125900 1.60240300
vt 6.49099500 1.59903000
vt 7.11831700 1.60342600
vt 8.39791700 1.60342600
vt 8.56079400 1.60245500
vt 8.39791700 1.60342600
vt 8.56079400 1.60245500
vt 8.39791700 1.60342600
vt 8.39791700 1.60342600
vt 4.10603000 1.60358800
vt 8.91666800 1.60245500
vt 6.62050200 1.60406700
vt 5.97350200 1.60358800
vt 0.09237300 1.60301800
vt 6.97637100 1.60406700
vt 0.09237300 1.60301800
vt 0.09237300 1.60301800
vt 0.70793200 1.60301800
vt 1.56442000 1.60301800
vt 1.37197600 1.60301800
vt 1.56442000 1.60301800
vt 1.56442000 1.60301800
f 6/6/6 52/52/52 8/8/8
f 28/28/28 10/10/10 7/7/7
f 18/18/18 54/54/54 11/11/11
f 48/48/48 2/2/2 14/14/14
f 36/36/36 23/23/23 35/35/35
f 31/31/31 23/23/23 9/9/9
f 42/42/42 24/24/24 44/44/44
f 34/34/34 64/64/64 59/59/59
f 29/29/29 64/64/64 30/30/30
f 27/27/27 65/65/65 25/25/25
f 51/51/51 74/74/74 68/68/68
f 1/1/1 72/72/72 5/5/5
f 47/47/47 75/75/75 45/45/45
f 20/20/20 77/77/77 15/15/15
f 41/41/41 83/83/83 79/79/79
f 39/39/39 83/83/83 38/38/38
f 53/53/53 57/57/57 86/86/86
f 36/36/36 58/58/58 17/17/17
f 35/35/35 64/64/64 33/33/33
f 64/64/64 32/32/32 30/30/30
f 31/31/31 66/66/66 29/29/29
f 65/65/65 26/26/26 25/25/25
f 28/28/28 67/67/67 27/27/27
f 68/68/68 52/52/52 51/51/51
f 50/50/50 73/73/73 49/49/49
f 75/75/75 46/46/46 45/45/45
f 48/48/48 78/78/78 47/47/47
f 42/42/42 82/82/82 21/21/21
f 44/44/44 83/83/83 43/43/43
f 24/24/24 38/38/38 83/83/83
f 39/39/39 13/13/13 85/85/85
f 54/54/54 84/84/84 11/11/11
f 56/56/56 61/61/61 55/55/55
f 3/3/3 50/50/50 52/52/52
f 28/28/28 26/26/26 10/10/10
f 19/19/19 56/56/56 54/54/54
f 48/48/48 46/46/46 2/2/2
f 36/36/36 17/17/17 23/23/23
f 31/31/31 32/32/32 23/23/23
f 42/42/42 21/21/21 24/24/24
f 34/34/34 33/33/33 64/64/64
f 29/29/29 66/66/66 64/64/64
f 27/27/27 67/67/67 65/65/65
f 51/51/51 49/49/49 69/69/69
f 1/1/1 76/76/76 70/70/70
f 47/47/47 78/78/78 75/75/75
f 22/22/22 80/80/80 77/77/77
f 41/41/41 43/43/43 83/83/83
f 39/39/39 85/85/85 83/83/83
f 53/53/53 55/55/55 62/62/62
f 36/36/36 34/34/34 63/63/63
f 35/35/35 23/23/23 64/64/64
f 64/64/64 23/23/23 32/32/32
f 31/31/31 9/9/9 66/66/66
f 65/65/65 10/10/10 26/26/26
f 28/28/28 7/7/7 67/67/67
f 68/68/68 8/8/8 52/52/52
f 50/50/50 4/4/4 71/71/71
f 75/75/75 2/2/2 46/46/46
f 48/48/48 14/14/14 78/78/78
f 42/42/42 41/41/41 81/81/81
f 44/44/44 24/24/24 83/83/83
f 24/24/24 37/37/37 38/38/38
f 39/39/39 40/40/40 12/12/12
f 54/54/54 53/53/53 87/87/87
f 56/56/56 16/16/16 60/60/60

