mtllib material.mtl
usemtl Material_#71
v -0.03530300 -1.48361500 15.06910600
v -0.03530300 -1.48361500 15.06910600
v -0.03530300 -1.48361500 15.06910600
v -1.50556600 -1.48361500 14.99687700
v -1.50556600 -1.48361500 14.99687700
v -1.50556600 -1.48361500 14.99687700
v -2.96166000 -1.48361500 14.78088400
v -2.96166000 -1.48361500 14.78088400
v -2.96166000 -1.48361500 14.78088400
v -4.38958000 -1.48361500 14.42321000
v -4.38958000 -1.48361500 14.42321000
v -4.38958000 -1.48361500 14.42321000
v -5.77555700 -1.48361500 13.92729700
v -5.77555700 -1.48361500 13.92729700
v -5.77555700 -1.48361500 13.92729700
v -12.50733400 -1.48361500 -8.26446100
v -12.50733400 -1.48361500 -8.26446100
v -12.50733400 -1.48361500 -8.26446100
v -11.63044900 -1.48361500 -9.44680600
v -11.63044900 -1.48361500 -9.44680600
v -11.63044900 -1.48361500 -9.44680600
v -10.64189400 -1.48361500 -10.53750700
v -10.64189400 -1.48361500 -10.53750700
v -10.64189400 -1.48361500 -10.53750700
v 13.82287100 -1.48361500 -5.67118500
v 13.82287100 -1.48361500 -5.67118500
v 13.82287100 -1.48361500 -5.67118500
v 14.31878900 -1.48361500 -4.28520700
v 14.31878900 -1.48361500 -4.28520700
v 14.31878900 -1.48361500 -4.28520700
v 14.31878900 -1.48361500 -4.28520700
v 0.83585000 -1.48361500 15.04401300
v 0.83585000 -1.48361500 15.04401300
v -7.03565400 -1.48361500 13.29792200
v -7.03565400 -1.48361500 13.29792200
v -7.03565400 -1.48361500 13.29792200
v -13.19350500 -1.48361500 -7.00185800
v -13.19350500 -1.48361500 -7.00185800
v -13.19350500 -1.48361500 -7.00185800
v -9.55119100 -1.48361500 -11.52605900
v -9.55119100 -1.48361500 -11.52605900
v 13.19349600 -1.48361500 -7.00188000
v 13.19349600 -1.48361500 -7.00188000
v 14.74707000 -1.48361500 -2.85729700
v 14.74707000 -1.48361500 -2.85729700
v 4.26821300 -1.48361500 -0.90225300
v 3.32192400 -1.48361500 -0.76624300
v 3.17733400 -1.48361500 -0.46891100
v 3.12020500 -1.48361500 -0.10942700
v -4.27460900 -1.48361500 -2.80998100
v -4.39444300 -1.48361500 -2.99073500
v -4.61174800 -1.48361500 -3.12292700
v -4.32037100 -1.48361500 -2.54300400
v 3.60827100 -1.48361500 -7.05403300
v 2.46986300 -1.48361500 -6.93944700
v 1.22371100 -1.48361500 -7.05687500
v 0.45222700 -1.48361500 -7.25104600
v -0.51182600 -1.48361500 -7.57478600
v -1.38870100 -1.48361500 -8.05225400
v -2.11502900 -1.48361500 -8.54181500
v -5.77555700 -2.43952400 13.92729700
v -5.77555700 -2.43952400 13.92729700
v -5.77555700 -2.43952400 13.92729700
v -4.38958000 -2.43952400 14.42321000
v -4.38958000 -2.43952400 14.42321000
v -9.55119100 -2.43952400 -11.52605900
v 14.31878900 -2.43952400 -4.28520800
v 14.31878900 -2.43952400 -4.28520800
v 13.19349600 -2.43952400 -7.00188000
v 14.71006800 -2.43952400 -2.85729700
v 14.71006800 -2.43952400 -2.85729700
v -1.50556600 -2.43952400 14.99687700
v -1.50556600 -2.43952400 14.99687700
v -7.07266600 -2.43952400 13.29792200
v -0.03530300 -2.43952400 15.06910600
v -0.03530300 -2.43952400 15.06910600
v 0.83585000 -2.43952400 15.04401300
v -10.64189400 -2.43952400 -10.53750700
v -10.64189400 -2.43952400 -10.53750700
v -11.63044900 -2.43952400 -9.44680600
v -11.63044900 -2.43952400 -9.44680600
v -12.50733400 -2.43952400 -8.26446100
v -12.50733400 -2.43952400 -8.26446100
v -12.50733400 -2.43952400 -8.26446100
v -13.23051700 -2.43952400 -7.00185800
v -2.96166000 -2.43952400 14.78088400
v -2.96166000 -2.43952400 14.78088400
v 13.82287100 -2.43952400 -5.67118500
v 13.82287100 -2.43952400 -5.67118500
vn -0.00000000 1.00000000 -0.00000000
vn 0.02880000 -0.00000000 0.99960000
vn -0.04910000 -0.00000000 0.99880000
vn -0.14670000 -0.00000000 0.98920000
vn -0.00000000 1.00000000 -0.00000000
vn -0.04910000 -0.00000000 0.99880000
vn -0.00000000 1.00000000 -0.00000000
vn -0.24300000 -0.00000000 0.97000000
vn -0.14670000 -0.00000000 0.98920000
vn -0.24300000 -0.00000000 0.97000000
vn -0.33690000 -0.00000000 0.94150000
vn -0.00000000 1.00000000 -0.00000000
vn -0.33690000 -0.00000000 0.94150000
vn -0.44680000 -0.00000000 0.89460000
vn -0.00000000 1.00000000 -0.00000000
vn -0.80320000 -0.00000000 -0.59570000
vn -0.87860000 -0.00000000 -0.47750000
vn -0.00000000 1.00000000 -0.00000000
vn -0.74100000 -0.00000000 -0.67160000
vn -0.80320000 -0.00000000 -0.59570000
vn -0.00000000 1.00000000 -0.00000000
vn -0.00000000 1.00000000 -0.00000000
vn -0.67160000 -0.00000000 -0.74100000
vn -0.74100000 -0.00000000 -0.67160000
vn 0.94150000 -0.00000000 -0.33690000
vn 0.90400000 -0.00000000 -0.42760000
vn -0.00000000 1.00000000 -0.00000000
vn 0.95720000 -0.03710000 -0.28710000
vn 0.94150000 -0.00000000 -0.33690000
vn -0.00000000 1.00000000 -0.00000000
vn 0.96440000 -0.00000000 -0.26430000
vn -0.00000000 1.00000000 -0.00000000
vn 0.02880000 -0.00000000 0.99960000
vn -0.43650000 0.01690000 0.89960000
vn -0.44680000 -0.00000000 0.89460000
vn -0.00000000 1.00000000 -0.00000000
vn -0.86730000 0.03360000 -0.49670000
vn -0.00000000 1.00000000 -0.00000000
vn -0.87860000 -0.00000000 -0.47750000
vn -0.67160000 -0.00000000 -0.74100000
vn -0.00000000 1.00000000 -0.00000000
vn 0.90400000 -0.00000000 -0.42760000
vn -0.00000000 1.00000000 -0.00000000
vn 0.95720000 -0.03710000 -0.28710000
vn -0.00000000 1.00000000 -0.00000000
vn -0.00000000 1.00000000 -0.00000000
vn -0.00000000 1.00000000 -0.00000000
vn -0.00000000 1.00000000 -0.00000000
vn -0.00000000 1.00000000 -0.00000000
vn -0.00000000 1.00000000 -0.00000000
vn -0.00000000 1.00000000 -0.00000000
vn -0.00000000 1.00000000 -0.00000000
vn -0.00000000 1.00000000 -0.00000000
vn -0.00000000 1.00000000 -0.00000000
vn -0.00000000 1.00000000 -0.00000000
vn -0.00000000 1.00000000 -0.00000000
vn -0.00000000 1.00000000 -0.00000000
vn -0.00000000 1.00000000 -0.00000000
vn -0.00000000 1.00000000 -0.00000000
vn -0.00000000 1.00000000 -0.00000000
vn -0.43650000 0.01690000 0.89960000
vn -0.44680000 -0.00000000 0.89460000
vn -0.33690000 -0.00000000 0.94150000
vn -0.24300000 -0.00000000 0.97000000
vn -0.33690000 -0.00000000 0.94150000
vn -0.67160000 -0.00000000 -0.74100000
vn 0.96440000 -0.00000000 -0.26430000
vn 0.94150000 -0.00000000 -0.33690000
vn 0.90400000 -0.00000000 -0.42760000
vn 0.95720000 -0.03710000 -0.28710000
vn 0.96440000 -0.00000000 -0.26430000
vn -0.04910000 -0.00000000 0.99880000
vn -0.14670000 -0.00000000 0.98920000
vn -0.43650000 0.01690000 0.89960000
vn -0.04910000 -0.00000000 0.99880000
vn 0.02880000 -0.00000000 0.99960000
vn 0.02880000 -0.00000000 0.99960000
vn -0.67160000 -0.00000000 -0.74100000
vn -0.74100000 -0.00000000 -0.67160000
vn -0.80320000 -0.00000000 -0.59570000
vn -0.74100000 -0.00000000 -0.67160000
vn -0.80320000 -0.00000000 -0.59570000
vn -0.86730000 0.03360000 -0.49670000
vn -0.87860000 -0.00000000 -0.47750000
vn -0.86730000 0.03360000 -0.49670000
vn -0.24300000 -0.00000000 0.97000000
vn -0.14670000 -0.00000000 0.98920000
vn 0.90400000 -0.00000000 -0.42760000
vn 0.94150000 -0.00000000 -0.33690000
vt 1.43554700 0.04416000
vt 3.50286200 0.56825800
vt 3.50286200 0.56825800
vt 3.23424900 0.56919200
vt 1.16942900 0.00530200
vt 3.23424900 0.56919200
vt 0.90078300 -0.00728200
vt 2.96822000 0.57011400
vt 2.96822000 0.57011400
vt 2.70734100 0.57101800
vt 2.70734100 0.57101800
vt 0.63219700 0.00652600
vt 2.45412400 0.57189800
vt 2.45412400 0.57189800
vt 0.36626100 0.04659300
vt 5.13398700 0.56350100
vt 5.13398700 0.56350100
vt -1.62248000 3.78771200
vt 4.91797600 0.56425300
vt 4.91797600 0.56425300
vt -1.50694000 4.03056900
vt -1.36815300 4.26093200
vt 4.71870400 0.56494400
vt 4.71870400 0.56494400
vt 4.19193100 0.56586800
vt 4.19193100 0.56586800
vt 3.18911200 4.25056800
vt 3.93871400 0.56674800
vt 3.93871400 0.56674800
vt 3.32685100 4.01957700
vt 3.93871400 0.56674800
vt 1.59083400 0.07935300
vt 3.66202100 0.56770600
vt 2.22390700 0.57269700
vt 2.22390700 0.57269700
vt 0.11818500 0.11501900
vt 5.36466400 0.56270000
vt -1.70100200 3.53719000
vt 5.36466400 0.56270000
vt 4.51943600 0.56563400
vt -1.20745500 4.47658000
vt 4.43504700 0.56502300
vt 3.02939700 4.46694800
vt 3.67783500 0.56765200
vt 3.45394300 3.77868800
vt 1.64428300 3.05898200
vt 1.47943500 3.00125600
vt 1.46398900 2.94285900
vt 1.46641500 2.87640100
vt 0.04559200 3.09997100
vt 0.01774000 3.12815100
vt -0.02587500 3.14419400
vt 0.04679500 3.05049700
vt 1.30921400 4.13855700
vt 1.10917100 4.07790500
vt 0.88163500 4.05504800
vt 0.73649000 4.06267200
vt 0.55225600 4.08674100
vt 0.37823500 4.14143900
vt 0.23077700 4.20360900
vt 2.45352000 0.39725400
vt 2.45352000 0.39725400
vt 2.45352000 0.39725400
vt 2.70673500 0.39637500
vt 2.70673500 0.39637500
vt 4.51882900 0.39099100
vt 3.93810900 0.39210400
vt 3.93810900 0.39210400
vt 4.43444300 0.39038000
vt 3.67722900 0.39300900
vt 3.67722900 0.39300900
vt 3.23364200 0.39454700
vt 3.23364200 0.39454700
vt 2.21654000 0.39807600
vt 3.50225800 0.39361500
vt 3.50225800 0.39361500
vt 3.66141500 0.39306300
vt 4.71809800 0.39030100
vt 4.71809800 0.39030100
vt 4.91736900 0.38960700
vt 4.91736900 0.38960700
vt 5.13338100 0.38885800
vt 5.13338100 0.38885800
vt 5.13338100 0.38885800
vt 5.36405800 0.38805800
vt 2.96761500 0.39547000
vt 2.96761500 0.39547000
vt 4.19132500 0.39122400
vt 4.19132500 0.39122400
f 76/76/76 33/33/33 2/2/2
f 72/72/72 3/3/3 6/6/6
f 87/87/87 4/4/4 9/9/9
f 64/64/64 8/8/8 10/10/10
f 63/63/63 11/11/11 13/13/13
f 35/35/35 62/62/62 14/14/14
f 37/37/37 83/83/83 85/85/85
f 80/80/80 16/16/16 20/20/20
f 79/79/79 19/19/19 24/24/24
f 66/66/66 23/23/23 40/40/40
f 88/88/88 42/42/42 26/26/26
f 68/68/68 25/25/25 29/29/29
f 70/70/70 28/28/28 44/44/44
f 18/18/18 52/52/52 21/21/21
f 43/43/43 54/54/54 27/27/27
f 47/47/47 54/54/54 55/55/55
f 56/56/56 47/47/47 55/55/55
f 57/57/57 48/48/48 56/56/56
f 59/59/59 52/52/52 51/51/51
f 51/51/51 58/58/58 59/59/59
f 53/53/53 7/7/7 49/49/49
f 57/57/57 53/53/53 49/49/49
f 57/57/57 50/50/50 53/53/53
f 22/22/22 60/60/60 41/41/41
f 52/52/52 60/60/60 21/21/21
f 46/46/46 27/27/27 54/54/54
f 46/46/46 45/45/45 30/30/30
f 53/53/53 12/12/12 7/7/7
f 7/7/7 5/5/5 49/49/49
f 15/15/15 53/53/53 36/36/36
f 1/1/1 49/49/49 5/5/5
f 76/76/76 77/77/77 33/33/33
f 72/72/72 75/75/75 3/3/3
f 87/87/87 73/73/73 4/4/4
f 64/64/64 86/86/86 8/8/8
f 63/63/63 65/65/65 11/11/11
f 34/34/34 74/74/74 61/61/61
f 39/39/39 17/17/17 84/84/84
f 80/80/80 82/82/82 16/16/16
f 79/79/79 81/81/81 19/19/19
f 66/66/66 78/78/78 23/23/23
f 88/88/88 69/69/69 42/42/42
f 68/68/68 89/89/89 25/25/25
f 71/71/71 67/67/67 31/31/31
f 18/18/18 38/38/38 52/52/52
f 47/47/47 46/46/46 54/54/54
f 56/56/56 48/48/48 47/47/47
f 57/57/57 49/49/49 48/48/48
f 59/59/59 60/60/60 52/52/52
f 51/51/51 50/50/50 58/58/58
f 57/57/57 58/58/58 50/50/50
f 22/22/22 21/21/21 60/60/60
f 46/46/46 30/30/30 27/27/27
f 15/15/15 12/12/12 53/53/53
f 1/1/1 32/32/32 49/49/49

