mtllib material.mtl
usemtl Material_#0.004
v -5.36682900 7.01803000 10.01265300
v -5.36682900 7.01803000 10.01265300
v -5.36682900 7.01803000 10.01265300
v 1.90860600 7.01850800 11.51513500
v 1.90860600 7.01850800 11.51513500
v 1.90860600 7.01850800 11.51513500
v -5.31859300 7.01506300 9.78864700
v -5.31859300 7.01506300 9.78864700
v -5.31859300 7.01506300 9.78864700
v 1.95684100 7.01554100 11.29112700
v 1.95684100 7.01554100 11.29112700
v 1.95684100 7.01554100 11.29112700
v -5.31096700 7.01021400 9.75000300
v -5.37106100 7.01318100 10.03409700
v 1.90098100 7.01365900 11.55377900
v 1.96107400 7.01069200 11.26968500
v -5.34045600 7.06934000 9.88940700
v -5.34045600 7.06934000 9.88940700
v -5.34045600 7.06934000 9.88940700
v 1.93158700 7.06981800 11.40908900
v 1.93158700 7.06981800 11.40908900
v 1.93158700 7.06981800 11.40908900
v -5.35719900 7.05422600 9.96953300
v -5.35719900 7.05422600 9.96953300
v -5.35719900 7.05422600 9.96953300
v 1.91484500 7.05470500 11.48921500
v 1.91484500 7.05470500 11.48921500
v 1.91484500 7.05470500 11.48921500
v -5.32475100 7.05392800 9.81407500
v -5.32475100 7.05392800 9.81407500
v -5.32475100 7.05392800 9.81407500
v 1.94729300 7.05440700 11.33375600
v 1.94729300 7.05440700 11.33375600
v 1.94729300 7.05440700 11.33375600
v 2.21399100 6.27662100 10.06399500
v -5.05540700 6.27614400 8.53094400
v 1.63824300 6.30126800 12.81197000
v -5.63115500 6.30079000 11.27891900
v -5.63064200 6.58643500 11.27639500
v 1.63875700 6.58691300 12.80944700
v 1.63875700 6.58691300 12.80944700
v 2.21399100 6.33666700 10.06399500
v -5.05540800 6.33618900 8.53094400
v 1.63824300 6.36131400 12.81197000
v -5.63115500 6.36083600 11.27891900
v -5.05484900 6.56178800 8.52841600
v -5.05484900 6.56178800 8.52841600
v 2.21454800 6.56226900 10.06146600
vn -0.03140000 0.98820000 0.15000000
vn -0.01350000 0.98710000 0.15940000
vn -0.09180000 0.98430000 0.15050000
vn -0.03430000 0.98840000 0.14760000
vn 0.03940000 0.98920000 0.14110000
vn -0.02970000 0.98900000 0.14490000
vn -0.03410000 0.98570000 -0.16490000
vn 0.03910000 0.98440000 -0.17130000
vn 0.03440000 0.98510000 -0.16840000
vn 0.01890000 0.98290000 -0.18330000
vn 0.03620000 0.98410000 -0.17380000
vn 0.09620000 0.98000000 -0.17410000
vn 0.11350000 0.83190000 -0.54320000
vn -0.10800000 0.84930000 0.51670000
vn -0.10800000 0.84930000 0.51670000
vn 0.11350000 0.83190000 -0.54320000
vn 0.00140000 1.00000000 -0.00710000
vn 0.11740000 0.97070000 0.20970000
vn 0.00280000 1.00000000 -0.00670000
vn -0.11450000 0.96790000 -0.22380000
vn 0.00160000 1.00000000 -0.00770000
vn 0.00030000 1.00000000 -0.00810000
vn -0.07280000 0.93240000 0.35410000
vn 0.04470000 0.83800000 0.54380000
vn -0.07400000 0.93240000 0.35380000
vn -0.07510000 0.93280000 0.35250000
vn -0.18800000 0.97190000 0.14200000
vn -0.07380000 0.93270000 0.35290000
vn 0.07820000 0.92400000 -0.37430000
vn 0.07950000 0.92410000 -0.37390000
vn 0.19770000 0.96790000 -0.15480000
vn 0.07840000 0.92350000 -0.37540000
vn -0.04630000 0.81990000 -0.57060000
vn 0.07710000 0.92350000 -0.37580000
vn -0.20640000 -0.00000000 0.97850000
vn -0.20640000 -0.00000000 0.97850000
vn 0.20640000 -0.00000000 -0.97850000
vn 0.20640000 -0.00000000 -0.97850000
vn -0.06550000 0.94840000 0.31020000
vn -0.06280000 0.95060000 0.30390000
vn -0.06550000 0.94840000 0.31020000
vn -0.20640000 -0.00000000 0.97850000
vn -0.20640000 -0.00000000 0.97850000
vn 0.20640000 -0.00000000 -0.97850000
vn 0.20640000 -0.00000000 -0.97850000
vn 0.06710000 0.94330000 -0.32520000
vn 0.07000000 0.94070000 -0.33210000
vn 0.07000000 0.94070000 -0.33210000
vt -0.00265400 0.44366600
vt -0.00265400 0.44366600
vt -0.00265400 0.44366600
vt 1.04126300 0.46504700
vt 1.04126300 0.46504700
vt 1.04126300 0.46504700
vt -0.00278900 0.50305400
vt -0.00278900 0.50305400
vt -0.00278900 0.50305400
vt 1.04112900 0.52443600
vt 1.04112900 0.52443600
vt 1.04112900 0.52443600
vt 2.47497200 1.97050800
vt 2.43318900 1.97026600
vt 2.44315200 1.07288000
vt 2.48493400 1.07312300
vt 2.45391600 1.97039200
vt 2.45391600 1.97039200
vt 2.45391600 1.97039200
vt 2.46387800 1.07300500
vt 2.46387800 1.07300500
vt 2.46387800 1.07300500
vt 2.44365300 1.97031400
vt 2.44365300 1.97031400
vt 2.44365300 1.97031400
vt 2.45361700 1.07292800
vt 2.45361700 1.07292800
vt 2.45361700 1.07292800
vt 2.46441100 1.97047500
vt 2.46441100 1.97047500
vt 2.46441100 1.97047500
vt 2.47437400 1.07308800
vt 2.47437400 1.07308800
vt 2.47437400 1.07308800
vt 15.01314800 0.61761700
vt 17.98183400 0.59297900
vt 17.98404700 0.24847100
vt 15.01537600 0.22382500
vt -0.00054000 0.10908300
vt 1.04351100 0.12239200
vt 1.04351100 0.12239200
vt 978.79101600 1308.66784700
vt 973.65661600 690.04852300
vt 954.66027800 689.58764600
vt 949.52441400 1308.20361300
vt -0.00554600 0.83673900
vt -0.00554600 0.83673900
vt 1.03850500 0.85004800
f 47/47/47 10/10/10 48/48/48
f 41/41/41 2/2/2 39/39/39
f 5/5/5 8/8/8 1/1/1
f 33/33/33 13/13/13 29/29/29
f 27/27/27 19/19/19 25/25/25
f 15/15/15 23/23/23 14/14/14
f 20/20/20 30/30/30 17/17/17
f 38/38/38 44/44/44 37/37/37
f 36/36/36 42/42/42 43/43/43
f 46/46/46 9/9/9 12/12/12
f 40/40/40 6/6/6 3/3/3
f 4/4/4 11/11/11 7/7/7
f 34/34/34 16/16/16 13/13/13
f 26/26/26 21/21/21 18/18/18
f 15/15/15 28/28/28 24/24/24
f 22/22/22 32/32/32 31/31/31
f 38/38/38 45/45/45 44/44/44
f 36/36/36 35/35/35 42/42/42

