mtllib material.mtl
usemtl Material_#55
v 6.18658200 -0.10312800 13.67926700
v 6.18658200 -0.10312800 13.67926700
v 6.18658200 -0.10312800 13.67926700
v 4.47879400 -0.10312800 8.79330100
v 3.34880500 -0.10312800 14.64304900
v 3.34880500 -0.10312800 14.64304900
v 4.47879400 2.56398300 8.79330200
v 6.18658200 2.56398300 13.66301500
v 6.18658200 2.56398300 13.66301500
v 6.18658200 2.56398300 13.66301500
v 3.34880500 2.56398300 14.64304900
v 3.34880500 2.56398300 14.64304900
v 3.34880500 2.56398300 14.64304900
v 4.30782200 -0.10312800 14.40130400
v 4.30782200 -0.10312800 14.40130400
v 4.30782200 -0.10312800 14.40130400
v 4.30782200 2.56398300 14.39581200
v 4.30782200 2.56398300 14.39581200
v 4.30782200 2.56398300 14.39581200
v 5.71982400 -0.10312800 13.90130000
v 5.71982400 -0.10312800 13.90130000
v 5.71745500 2.56398300 13.90087300
v 5.71745500 2.56398300 13.90087300
v 5.71745500 2.56398300 13.90087300
v 5.71745500 2.56398300 13.90087300
v 6.39513700 2.56398300 11.31556200
v 6.39513700 -0.10312800 11.31636000
v 6.39513700 -0.10312800 11.31636000
v 4.12540100 2.56398300 10.62275100
v 3.75996500 2.56398300 12.51454900
v 5.36438000 -0.10312800 14.02716600
v 5.36438000 -0.10312800 14.02716600
v 5.36438000 -0.10312800 14.02716600
v 5.36438000 -0.10312800 14.02716600
v 5.36260800 2.56398300 14.02546500
v 5.36260800 2.56398300 14.02546500
v 4.12054300 -0.10312800 10.64790400
v 3.75567200 -0.10312800 12.53677600
v 13.72728100 -0.11596600 3.34501700
v 13.72728100 -0.11596600 3.34501700
v 13.72728100 -0.11596600 3.34501700
v 9.64527300 -0.11618000 0.80663900
v 9.64527300 -0.11618000 0.80663900
v 9.64527300 -0.11618000 0.80663900
v 9.64527300 -0.11618000 0.80663900
v 7.77797100 -0.11603600 13.11258300
v 7.77797100 -0.11603600 13.11258300
v 5.06901600 -0.12166100 8.31652500
v 5.06901600 -0.12166100 8.31652500
v 5.06901600 -0.12166100 8.31652500
v 5.06901600 -0.12166100 8.31652500
v 10.67513000 -0.11607400 8.35845400
v 10.67513000 -0.11607400 8.35845400
v 10.67513000 -0.11607400 8.35845400
v 10.67513000 -0.11607400 8.35845400
v 10.67513000 -0.11607400 8.35845400
v 6.42594700 -0.12346900 6.03891000
v 6.42594700 -0.12346900 6.03891000
v 7.58454800 -0.11605700 4.17859100
v 7.58454800 -0.11605700 4.17859100
v 12.01128700 -0.11607500 6.16639500
v 12.01128700 -0.11607500 6.16639500
v 12.01128700 -0.11607500 6.16639500
v 7.58580200 2.73258700 4.17655800
v 7.58580200 2.73258700 4.17655800
v 7.58580200 2.73258700 4.17655800
v 7.58580200 2.73258700 4.17655800
v 11.56745700 2.72015000 6.88343200
v 11.56745700 2.72015000 6.88343200
v 11.56745700 2.72015000 6.88343200
v 10.89652900 2.72015000 7.99095300
v 10.89652900 2.72015000 7.99095300
v 6.44831300 2.73419700 6.04999700
v 6.44831300 2.73419700 6.04999700
v 6.44831300 2.73419700 6.04999700
v 6.44831300 2.73419700 6.04999700
v 6.44831300 2.73419700 6.04999700
v 8.96750400 2.72015000 1.90926800
v 8.96750400 2.72015000 1.90926800
v 8.27704800 2.71845300 3.03803200
v 8.27704800 2.71845300 3.03803200
v 8.27704800 2.71845300 3.03803200
v 10.05589900 -0.11607400 9.36255000
v 10.05589800 2.09163700 9.36254700
v 10.05589800 2.09163700 9.36254700
v 10.05589800 2.09163700 9.36254700
v 10.05589800 2.09163700 9.36254700
v 6.07517400 2.72162700 6.66582500
v 6.07517400 2.72162700 6.66582500
v 6.07517400 2.72162700 6.66582500
v 6.07517400 2.72162700 6.66582500
v 9.46662900 -0.11607500 10.33210200
v 9.46662900 2.09163800 10.34657200
v 9.46662900 2.09163800 10.34657200
v 9.46662900 2.09163800 10.34657200
v 5.39689600 2.72015000 7.77678600
v 5.39689600 2.72015000 7.77678600
v 8.27706100 0.46937600 3.03803900
v 8.27706100 0.46937600 3.03803900
v 8.27706100 0.46937600 3.03803900
v 8.27706100 0.46937600 3.03803900
v 8.96750600 0.46532700 1.90927100
v 8.96750600 0.46532700 1.90927100
v 8.96750600 0.46532700 1.90927100
v 11.56745900 0.47032400 6.88343300
v 11.56745900 0.47032400 6.88343300
v 11.56745900 0.47032400 6.88343300
v 11.56745900 0.47032400 6.88343300
v 10.89653100 0.47032400 7.99095400
v 10.89653100 0.47032400 7.99095400
v 10.89653100 0.47032400 7.99095400
v 5.39690300 0.46126700 7.77679100
v 5.39690300 0.46126700 7.77679100
v 5.39690300 0.46126700 7.77679100
v 6.07516700 0.45961900 6.66582400
v 6.07516700 0.45961900 6.66582400
v 6.07516700 0.45961900 6.66582400
v 6.07516700 0.45961900 6.66582400
v 9.64677600 3.07454800 0.80454300
v 9.64677600 3.07454800 0.80454300
v 9.64677600 3.07454800 0.80454300
v 9.64677600 3.07454800 0.80454300
v 9.64677600 3.07454800 0.80454300
v 13.72846700 3.03428000 3.34276600
v 13.72846700 3.03428000 3.34276600
v 12.01113800 3.03677900 6.16632100
v 12.01113800 3.03677900 6.16632100
v 12.01113800 3.03677900 6.16632100
v 12.01113800 3.03677900 6.16632100
v 12.01113800 3.03677900 6.16632100
v 10.67499700 3.03874200 8.35838700
v 10.67499700 3.03874200 8.35838700
v 10.67499700 3.03874200 8.35838700
v 10.67499700 3.03874200 8.35838700
v 10.67499700 3.03874200 8.35838700
v 10.67499700 3.03874200 8.35838700
v 7.57513700 3.07762700 4.19395200
v 7.57513700 3.07762700 4.19395200
v 7.57513700 3.07762700 4.19395200
v 7.57513700 3.07762700 4.19395200
v 5.06889000 3.08126700 8.31646300
v 5.06889000 3.08126700 8.31646300
v 5.06889000 3.08126700 8.31646300
v 5.06889000 3.08126700 8.31646300
v 5.06889000 3.08126700 8.31646300
v 6.45959900 3.07921200 6.03793200
v 6.45959900 3.07921200 6.03793200
v 6.45959900 3.07921200 6.03793200
v 11.26171600 3.05673900 1.80793600
v 11.26171600 3.05673900 1.80793600
v 11.26171600 3.05673900 1.80793600
v 11.23683300 -0.11566800 1.79547400
v 12.11845700 3.05084100 2.34157100
v 12.11845700 3.05084100 2.34157100
v 12.11845700 3.05084100 2.34157100
v 12.09360700 -0.11713300 2.32912600
v 12.09360700 -0.11713300 2.32912600
v 7.78191200 3.04299100 13.10516500
v 7.78191200 3.04299100 13.10516500
v 7.78191200 3.04299100 13.10516500
v 7.78191200 3.04299100 13.10516500
v 9.27542400 3.04083500 10.64509900
v 9.27542400 3.04083500 10.64509900
v 9.27542400 3.04083500 10.64509900
v 9.27542400 3.04083500 10.64509900
v 9.27516800 -0.11610000 10.64807200
v 9.27516800 -0.11610000 10.64807200
v 9.27516800 -0.11610000 10.64807200
v 9.27516800 -0.11610000 10.64807200
v 6.14841000 3.05979400 12.08936200
v 6.15350400 -0.11615500 12.10241400
v 6.15350400 -0.11615500 12.10241400
v 4.66717900 -0.23426600 8.97723700
v 4.66705200 3.07167000 8.97717400
vn 0.99610000 0.00050000 0.08790000
vn 0.45220000 0.00540000 0.89190000
vn 0.42960000 0.00050000 0.90300000
vn -0.98180000 -0.00000000 -0.18970000
vn 0.24440000 -0.00000000 0.96970000
vn -0.98180000 -0.00000000 -0.18970000
vn -0.98180000 -0.00000000 -0.18970000
vn 0.99610000 0.00050000 0.08790000
vn 0.45650000 0.00270000 0.88970000
vn 0.99610000 -0.00000000 0.08850000
vn 0.21470000 -0.00770000 0.97660000
vn -0.98180000 -0.00000000 -0.18970000
vn 0.21070000 0.01360000 0.97750000
vn 0.29140000 0.00170000 0.95660000
vn 0.28920000 -0.01540000 0.95710000
vn 0.28620000 0.01070000 0.95810000
vn 0.29090000 -0.01210000 0.95670000
vn 0.29420000 0.01740000 0.95560000
vn 0.29300000 0.00110000 0.95610000
vn 0.37550000 -0.00070000 0.92680000
vn 0.38870000 0.00160000 0.92140000
vn 0.38780000 -0.00530000 0.92170000
vn 0.38180000 0.02230000 0.92400000
vn 0.38440000 0.02790000 0.92270000
vn 0.40190000 -0.00460000 0.91570000
vn 0.99610000 -0.00030000 0.08860000
vn 0.99610000 -0.00000000 0.08850000
vn 0.99610000 0.00050000 0.08790000
vn -0.98180000 -0.00000000 -0.18970000
vn -0.98180000 -0.00000000 -0.18970000
vn 0.33380000 0.00080000 0.94260000
vn 0.33130000 0.00120000 0.94350000
vn 0.33390000 0.00140000 0.94260000
vn 0.33090000 0.00040000 0.94370000
vn 0.33080000 0.00030000 0.94370000
vn 0.33080000 -0.00060000 0.94370000
vn -0.98180000 -0.00000000 -0.18970000
vn -0.98180000 -0.00000000 -0.18970000
vn 0.52810000 -0.00080000 -0.84920000
vn 0.85440000 -0.00000000 0.51960000
vn 0.85440000 0.00010000 0.51960000
vn -0.85200000 -0.00050000 -0.52360000
vn -0.85230000 -0.00160000 -0.52310000
vn 0.52770000 -0.00080000 -0.84940000
vn -0.85270000 -0.00180000 -0.52250000
vn 0.85470000 0.00020000 0.51920000
vn -0.52810000 0.00270000 0.84920000
vn -0.85590000 0.01030000 -0.51710000
vn -0.85440000 -0.00000000 -0.51960000
vn -0.85810000 0.02180000 -0.51300000
vn -0.85070000 -0.01290000 -0.52540000
vn 0.85340000 0.00120000 0.52120000
vn 0.85470000 -0.00360000 0.51910000
vn 0.85260000 0.00340000 0.52260000
vn 0.85210000 0.00550000 0.52330000
vn 0.85330000 0.00220000 0.52150000
vn -0.86660000 0.01600000 -0.49870000
vn -0.86210000 0.02400000 -0.50610000
vn -0.85440000 -0.00160000 -0.51970000
vn -0.85440000 -0.00210000 -0.51960000
vn 0.85310000 0.00140000 0.52170000
vn 0.85310000 0.00140000 0.52170000
vn 0.85270000 0.00410000 0.52250000
vn -0.85450000 0.00120000 -0.51950000
vn -0.85490000 0.00140000 -0.51880000
vn -0.85450000 -0.00360000 -0.51940000
vn -0.85510000 0.00130000 -0.51850000
vn 0.85270000 -0.00750000 0.52230000
vn 0.85210000 -0.00240000 0.52330000
vn 0.85250000 -0.01220000 0.52260000
vn 0.85630000 0.00310000 0.51650000
vn 0.85520000 -0.00680000 0.51820000
vn -0.86490000 0.01480000 -0.50180000
vn -0.84980000 -0.00030000 -0.52720000
vn -0.85540000 0.00510000 -0.51790000
vn -0.85790000 0.00660000 -0.51390000
vn -0.85830000 0.01150000 -0.51310000
vn -0.85250000 0.00450000 -0.52260000
vn -0.85260000 0.00630000 -0.52250000
vn -0.85380000 0.00630000 -0.52060000
vn -0.85370000 0.00690000 -0.52070000
vn -0.85510000 0.00940000 -0.51830000
vn 0.85120000 -0.00000000 0.52490000
vn 0.85180000 -0.00300000 0.52390000
vn 0.85150000 -0.00270000 0.52430000
vn 0.85640000 0.01090000 0.51630000
vn 0.85290000 0.00070000 0.52210000
vn -0.85700000 0.00430000 -0.51540000
vn -0.85680000 0.00520000 -0.51560000
vn -0.84900000 -0.00060000 -0.52840000
vn -0.85700000 0.00360000 -0.51530000
vn 0.85520000 -0.00340000 0.51820000
vn 0.84540000 0.00070000 0.53410000
vn 0.85560000 0.00160000 0.51760000
vn 0.85420000 0.01020000 0.51990000
vn -0.85400000 0.00160000 -0.52030000
vn -0.85400000 0.00210000 -0.52030000
vn -0.85350000 -0.00320000 -0.52110000
vn -0.85570000 -0.00360000 -0.51750000
vn -0.85380000 -0.00390000 -0.52060000
vn -0.85450000 -0.00580000 -0.51940000
vn -0.85250000 -0.00230000 -0.52270000
vn -0.85300000 -0.00320000 -0.52190000
vn -0.85070000 -0.00320000 -0.52560000
vn 0.85280000 0.00300000 0.52220000
vn 0.85250000 0.00580000 0.52280000
vn 0.85070000 0.00560000 0.52560000
vn 0.85280000 0.00130000 0.52220000
vn 0.85530000 0.00310000 0.51810000
vn 0.85640000 -0.00200000 0.51630000
vn 0.85630000 0.00380000 0.51640000
vn -0.85460000 0.01130000 -0.51910000
vn -0.85710000 0.01020000 -0.51500000
vn -0.85210000 -0.01300000 -0.52320000
vn -0.86520000 0.01600000 -0.50120000
vn -0.86090000 0.02460000 -0.50820000
vn -0.85480000 0.01070000 -0.51890000
vn -0.85850000 -0.00350000 -0.51280000
vn 0.52770000 -0.00080000 -0.84940000
vn -0.85220000 -0.00000000 -0.52330000
vn -0.85210000 -0.00040000 -0.52340000
vn -0.85280000 0.00040000 -0.52230000
vn -0.85190000 -0.00180000 -0.52370000
vn 0.85360000 0.00160000 0.52090000
vn 0.52810000 -0.00080000 -0.84920000
vn 0.85320000 0.00050000 0.52160000
vn 0.85340000 0.00240000 0.52130000
vn 0.85260000 0.00310000 0.52260000
vn 0.85250000 -0.00340000 0.52270000
vn 0.85280000 0.00030000 0.52220000
vn 0.85250000 -0.00400000 0.52270000
vn 0.85430000 0.00240000 0.51980000
vn 0.85580000 0.01110000 0.51720000
vn 0.85240000 -0.00340000 0.52280000
vn 0.85380000 0.00060000 0.52060000
vn 0.85400000 0.00120000 0.52030000
vn -0.85450000 0.00100000 -0.51950000
vn -0.85410000 -0.00400000 -0.52020000
vn -0.85450000 0.00160000 -0.51940000
vn -0.85740000 0.00790000 -0.51470000
vn -0.85410000 0.00020000 -0.52010000
vn -0.85420000 0.00060000 -0.52000000
vn -0.85370000 -0.00030000 -0.52070000
vn -0.85420000 -0.00050000 -0.51990000
vn -0.85440000 -0.00000000 -0.51960000
vn -0.85540000 0.00740000 -0.51790000
vn -0.85510000 0.00210000 -0.51850000
vn -0.85500000 0.00230000 -0.51860000
vn 0.52820000 -0.00100000 -0.84910000
vn 0.52820000 -0.00090000 -0.84910000
vn 0.52820000 -0.00060000 -0.84910000
vn 0.52820000 -0.00080000 -0.84910000
vn 0.52830000 -0.00120000 -0.84910000
vn 0.52830000 -0.00080000 -0.84910000
vn 0.52850000 -0.00080000 -0.84890000
vn 0.52860000 -0.00050000 -0.84890000
vn 0.52840000 -0.00080000 -0.84900000
vn 0.85470000 -0.00160000 0.51910000
vn -0.52790000 0.00330000 0.84930000
vn 0.85390000 -0.00130000 0.52050000
vn -0.52840000 0.00320000 0.84900000
vn 0.85320000 -0.00430000 0.52150000
vn 0.84940000 0.00160000 0.52770000
vn 0.85480000 0.00040000 0.51900000
vn 0.85810000 0.01070000 0.51350000
vn 0.84320000 0.00670000 0.53760000
vn 0.85220000 0.00450000 0.52310000
vn 0.85130000 -0.00070000 0.52460000
vn 0.85850000 -0.00270000 0.51280000
vn -0.52800000 0.00330000 0.84920000
vn -0.52810000 0.00270000 0.84920000
vn -0.52810000 0.00260000 0.84920000
vn -0.85440000 -0.00000000 -0.51960000
vn -0.85440000 -0.00000000 -0.51960000
vt 25.58043300 0.00156700
vt 37.85073100 0.05708300
vt 37.85073100 0.05708300
vt -4.29702200 -0.00219900
vt 37.01191700 0.05708300
vt -2.23267600 -0.00219900
vt -4.29702200 0.92200900
vt 25.58588200 0.90727200
vt 37.84979600 0.91030700
vt 25.58588200 0.90727200
vt 37.01191700 0.91030700
vt -2.23267600 0.92200900
vt 37.01191700 0.91030700
vt 37.30014800 0.05708300
vt 37.30014800 0.05708300
vt 37.30014800 0.05708300
vt 37.29985000 0.91030700
vt 37.29985000 0.91030700
vt 37.29985000 0.91030700
vt 37.71635100 0.05708300
vt 37.71635100 0.05708300
vt 37.71558800 0.91030700
vt 37.71558800 0.91030700
vt 37.71558800 0.91030700
vt 37.71558800 0.91030700
vt 26.38296500 0.90727200
vt 26.38270800 0.00156700
vt 26.38270800 0.00156700
vt -3.65141600 0.92200900
vt -2.98380100 0.92200900
vt 37.61159500 0.05708300
vt 37.61159500 0.05708300
vt 37.61159500 0.05708300
vt 37.61159500 0.05708300
vt 37.61093100 0.91030700
vt 37.61093100 0.91030700
vt -3.64252700 -0.00219900
vt -2.97595700 -0.00219900
vt 5.13731800 0.01379200
vt 10.01660200 0.03210900
vt 10.01660200 0.03210900
vt 12.15408400 0.00455800
vt 12.15408400 0.00455800
vt 6.44626000 0.01223300
vt 12.15408400 0.00455800
vt 6.83307500 0.03209300
vt -12.30772900 0.04231900
vt 14.29792100 0.00312900
vt 14.29792100 0.00312900
vt 14.29792100 0.00312900
vt 14.29792100 0.00312900
vt 8.38265900 0.03208600
vt 8.38265900 0.03208600
vt 8.38265900 0.03208600
vt 8.38265900 0.03208600
vt 8.38265900 0.03208600
vt 13.64915600 0.00265500
vt 13.64915600 0.00265500
vt 13.11694000 0.00459800
vt 13.11694000 0.00459800
vt 9.09717300 0.03207800
vt 9.09717300 0.03207800
vt 9.09717300 0.03207800
vt 13.11636600 0.74915600
vt 13.11636600 0.74915600
vt 13.11636600 0.74915600
vt 13.11636600 0.74915600
vt 8.86309100 0.87850300
vt 8.86309100 0.87850300
vt 8.86309100 0.87850300
vt 8.50230100 0.87850300
vt 8.50230100 0.87850300
vt 13.65099100 0.74958300
vt 13.65099100 0.74958300
vt 13.65099100 0.74958300
vt 13.65099100 0.74958300
vt 13.65099100 0.74958300
vt 12.46910800 0.74591000
vt 12.46910800 0.74591000
vt 12.79146600 0.74546300
vt 12.79146600 0.74546300
vt 12.79146600 0.74546300
vt 8.05499100 0.03208600
vt 8.05499100 0.69093500
vt 8.05499100 0.69093500
vt 8.05499100 0.69093500
vt 8.05499100 0.69093500
vt 13.82667400 0.74629800
vt 13.82667400 0.74629800
vt 13.82667400 0.74629800
vt 13.82667400 0.74629800
vt 7.73904600 0.03208600
vt 7.73479200 0.69093500
vt 7.73479200 0.69093500
vt 7.73479200 0.69093500
vt 14.14388800 0.74591000
vt 14.14388800 0.74591000
vt 12.79146600 0.15761000
vt 12.79146600 0.15761000
vt 12.79146600 0.15761000
vt 12.79146600 0.15761000
vt 12.46910800 0.15655500
vt 12.46910800 0.15655500
vt 12.46910800 0.15655500
vt 8.86309100 0.20708100
vt 8.86309100 0.20708100
vt 8.86309100 0.20708100
vt 8.86309100 0.20708100
vt 8.50230100 0.20708100
vt 8.50230100 0.20708100
vt 8.50230100 0.20708100
vt 14.14388800 0.15549300
vt 14.14388800 0.15549300
vt 14.14388800 0.15549300
vt 13.82667400 0.15505900
vt 13.82667400 0.15505900
vt 13.82667400 0.15505900
vt 13.82667400 0.15505900
vt 6.44701000 0.94713000
vt 12.15346100 0.83854300
vt 12.15346100 0.83854300
vt 12.15346100 0.83854300
vt 12.15346100 0.83854300
vt 10.01732700 0.97225400
vt 5.13814900 0.93683000
vt 9.09718600 0.97300000
vt 9.09718600 0.97300000
vt 9.09718600 0.97300000
vt 9.09718600 0.97300000
vt 9.09718600 0.97300000
vt 8.38266700 0.97358000
vt 8.38266700 0.97358000
vt 8.38266700 0.97358000
vt 8.38266700 0.97358000
vt 8.38266700 0.97358000
vt 8.38266700 0.97358000
vt 13.12132000 0.83934400
vt 13.12132000 0.83934400
vt 13.12132000 0.83934400
vt 13.12132000 0.83934400
vt 14.29791500 0.84029200
vt 14.29791500 0.84029200
vt 14.29791500 0.84029200
vt 14.29791500 0.84029200
vt 14.29791500 0.84029200
vt 13.64736600 0.83975800
vt 13.64736600 0.83975800
vt 13.64736600 0.83975800
vt 5.92918700 0.94249800
vt 5.92918700 0.94249800
vt 5.92918700 0.94249800
vt 5.93595300 0.01296700
vt 5.65443000 0.94109000
vt 5.65443000 0.94109000
vt 5.65443000 0.94109000
vt 5.66116700 0.01284700
vt 5.66116700 0.01284700
vt 6.83545300 0.97485300
vt -12.30704900 0.90151900
vt 6.83545300 0.97485300
vt -12.30704900 0.90151900
vt 7.63700100 0.97420500
vt 7.63700100 0.97420500
vt 7.63700100 0.97420500
vt 7.63700100 0.97420500
vt 7.63610900 0.03207000
vt 7.63610900 0.03207000
vt 7.63610900 0.03207000
vt 7.63610900 0.03207000
vt -12.79326800 0.90609200
vt -12.79125800 0.04229100
vt -12.79125800 0.04229100
vt 14.48649200 -0.02630600
vt 14.48647800 0.81086400
f 28/28/28 8/8/8 1/1/1
f 16/16/16 13/13/13 5/5/5
f 38/38/38 12/12/12 30/30/30
f 33/33/33 18/18/18 14/14/14
f 3/3/3 23/23/23 20/20/20
f 24/24/24 31/31/31 21/21/21
f 29/29/29 4/4/4 37/37/37
f 37/37/37 30/30/30 29/29/29
f 149/149/149 44/44/44 119/119/119
f 161/161/161 171/171/171 47/47/47
f 50/50/50 116/116/116 58/58/58
f 109/109/109 132/132/132 56/56/56
f 74/74/74 117/117/117 90/90/90
f 54/54/54 84/84/84 83/83/83
f 94/94/94 169/169/169 92/92/92
f 100/100/100 45/45/45 60/60/60
f 130/130/130 40/40/40 124/124/124
f 131/131/131 70/70/70 129/129/129
f 122/122/122 81/81/81 139/139/139
f 80/80/80 65/65/65 137/137/137
f 120/120/120 104/104/104 79/79/79
f 140/140/140 77/77/77 146/146/146
f 89/89/89 143/143/143 147/147/147
f 144/144/144 113/113/113 48/48/48
f 88/88/88 148/148/148 76/76/76
f 99/99/99 67/67/67 80/80/80
f 151/151/151 157/157/157 152/152/152
f 153/153/153 39/39/39 157/157/157
f 53/53/53 108/108/108 110/110/110
f 107/107/107 126/126/126 68/68/68
f 158/158/158 167/167/167 164/164/164
f 86/86/86 165/165/165 95/95/95
f 49/49/49 174/174/174 145/145/145
f 27/27/27 26/26/26 10/10/10
f 15/15/15 19/19/19 11/11/11
f 38/38/38 6/6/6 12/12/12
f 34/34/34 36/36/36 17/17/17
f 2/2/2 9/9/9 25/25/25
f 22/22/22 35/35/35 32/32/32
f 29/29/29 7/7/7 4/4/4
f 37/37/37 38/38/38 30/30/30
f 151/151/151 152/152/152 44/44/44
f 159/159/159 170/170/170 172/172/172
f 51/51/51 114/114/114 118/118/118
f 111/111/111 72/72/72 135/135/135
f 73/73/73 57/57/57 115/115/115
f 52/52/52 136/136/136 87/87/87
f 93/93/93 163/163/163 166/166/166
f 101/101/101 102/102/102 42/42/42
f 127/127/127 62/62/62 41/41/41
f 133/133/133 71/71/71 69/69/69
f 123/123/123 78/78/78 82/82/82
f 121/121/121 43/43/43 103/103/103
f 138/138/138 66/66/66 75/75/75
f 91/91/91 97/97/97 142/142/142
f 141/141/141 96/96/96 112/112/112
f 98/98/98 59/59/59 64/64/64
f 150/150/150 154/154/154 156/156/156
f 155/155/155 125/125/125 39/39/39
f 55/55/55 63/63/63 106/106/106
f 105/105/105 61/61/61 128/128/128
f 160/160/160 46/46/46 168/168/168
f 85/85/85 134/134/134 162/162/162
f 49/49/49 173/173/173 174/174/174

